<?xml version="1.0" standalone="no"?>
<!DOCTYPE svg PUBLIC "-//W3C//DTD SVG 20010904//EN"
 "http://www.w3.org/TR/2001/REC-SVG-20010904/DTD/svg10.dtd">
<svg version="1.0" xmlns="http://www.w3.org/2000/svg"
 width="512.000000pt" height="512.000000pt" viewBox="0 0 512.000000 512.000000"
 preserveAspectRatio="xMidYMid meet">

<g transform="translate(0.000000,512.000000) scale(0.100000,-0.100000)"
fill="#000000" stroke="none">
<path d="M862 4753 c-41 -20 -69 -54 -84 -104 -21 -73 21 -156 96 -190 38 -17
76 -19 564 -19 l522 0 0 70 c0 79 14 155 41 217 l18 43 -562 0 c-498 0 -566
-2 -595 -17z"/>
<path d="M2429 4341 c-45 -15 -80 -43 -100 -82 -18 -37 -19 -68 -19 -1007 l0
-968 -54 -11 c-122 -26 -260 -95 -377 -189 -145 -118 -257 -294 -311 -491 -31
-116 -31 -335 0 -453 91 -339 353 -599 688 -682 126 -31 314 -31 437 0 163 41
304 119 426 236 132 128 219 277 263 452 32 127 31 324 -1 444 -58 219 -199
423 -373 541 -84 58 -211 116 -295 137 l-73 17 0 964 c0 942 0 966 -20 1005
-33 69 -122 109 -191 87z"/>
<path d="M1310 4083 c-61 -23 -110 -95 -110 -160 0 -52 37 -113 85 -140 39
-22 47 -23 358 -23 l317 0 0 165 0 165 -317 -1 c-175 0 -325 -3 -333 -6z"/>
<path d="M875 3396 c-64 -28 -112 -112 -100 -175 9 -51 47 -105 88 -124 31
-15 92 -17 566 -17 l531 0 0 165 0 165 -527 0 c-418 -1 -534 -4 -558 -14z"/>
<path d="M3355 3385 c-49 -49 -42 -60 181 -289 262 -268 271 -276 304 -276 33
0 44 10 309 281 218 224 225 236 176 284 l-24 25 -461 0 -461 0 -24 -25z"/>
<path d="M1315 2715 c-80 -28 -126 -108 -110 -192 9 -48 68 -107 120 -122 22
-6 115 -11 207 -11 l167 0 83 54 c46 30 104 64 131 77 l47 23 0 93 0 93 -302
0 c-235 -1 -312 -4 -343 -15z"/>
</g>
</svg>
