<svg width="76" height="76" viewBox="0 0 76 76" fill="none" xmlns="http://www.w3.org/2000/svg">
<path d="M61.1174 16.3775C57.2817 12.2817 51.8716 9.93506 46.2644 9.93506C42.2219 9.93506 34.8662 11.875 32.3408 17.0753C32.1065 17.56 32.1374 18.1295 32.4222 18.5867C32.7069 19.0433 33.2111 19.3217 33.7491 19.3217C41.9189 19.3217 49.278 24.1933 52.4909 31.7312C52.81 32.4788 53.6488 32.8604 54.4154 32.6037C58.2608 31.3525 61.299 31.6779 64.3904 32.995C64.5875 33.0792 64.7972 33.1199 65.0035 33.1199C65.2882 33.1199 65.5729 33.042 65.8233 32.8885C66.2581 32.6261 66.5337 32.166 66.5647 31.659C66.9405 25.955 65.0069 20.5295 61.1174 16.3775Z" fill="#FFC107"/>
<path d="M65.6315 30.1165C62.2175 28.6584 58.6912 28.2264 54.7959 29.2371C50.8285 21.2678 42.7182 16.1929 33.7572 16.1929C22.3023 16.1929 12.5467 24.5002 10.6411 35.6795C4.85866 37.5633 0.903809 42.9166 0.903809 49.0463C0.903809 56.8088 7.2208 63.1263 14.9838 63.1263H58.7886C68.275 63.1263 75.9973 55.4074 75.9973 45.917C75.9973 39.0586 71.9296 32.8602 65.6315 30.1165Z" fill="#BBDEFB"/>
<path d="M44.694 56.8681C42.1875 56.8681 40.864 55.8105 39.8036 54.9626C38.915 54.2521 38.2733 53.7394 36.8651 53.7394C35.4603 53.7394 34.8536 54.2241 33.9335 54.9597C32.873 55.8105 31.5524 56.8681 29.0465 56.8681C26.5434 56.8681 25.2228 55.8105 24.1618 54.9626C23.2451 54.2241 22.6384 53.7394 21.2336 53.7394C20.3696 53.7394 19.6689 53.0381 19.6689 52.1747C19.6689 51.3114 20.3696 50.6101 21.2336 50.6101C23.7367 50.6101 25.0601 51.6677 26.1206 52.5191C27.0344 53.2541 27.6445 53.7394 29.0465 53.7394C30.4513 53.7394 31.0614 53.2541 31.981 52.5156C33.042 51.6677 34.362 50.6101 36.8651 50.6101C39.3716 50.6101 40.695 51.6677 41.7561 52.5156C42.6447 53.2261 43.2858 53.7394 44.694 53.7394C46.1017 53.7394 46.7433 53.2261 47.6285 52.5156C48.6924 51.6677 50.0158 50.6101 52.5224 50.6101C53.3857 50.6101 54.087 51.3114 54.087 52.1747C54.087 53.0381 53.3857 53.7394 52.5224 53.7394C51.1141 53.7394 50.473 54.2521 49.5873 54.9626C48.5234 55.8105 47.1999 56.8681 44.694 56.8681Z" fill="black"/>
<path d="M44.694 66.2551C42.1875 66.2551 40.864 65.1974 39.8036 64.3495C38.915 63.6391 38.2733 63.1263 36.8651 63.1263C35.4603 63.1263 34.8536 63.611 33.9335 64.3467C32.873 65.1974 31.5524 66.2551 29.0465 66.2551C26.5434 66.2551 25.2228 65.1974 24.1618 64.3495C23.2451 63.611 22.6384 63.1263 21.2336 63.1263C20.3696 63.1263 19.6689 62.4251 19.6689 61.5617C19.6689 60.6983 20.3696 59.9971 21.2336 59.9971C23.7367 59.9971 25.0601 61.0547 26.1206 61.906C27.0344 62.6411 27.6445 63.1263 29.0465 63.1263C30.4513 63.1263 31.0614 62.6411 31.981 61.9026C33.042 61.0547 34.362 59.9971 36.8651 59.9971C39.3716 59.9971 40.695 61.0547 41.7561 61.9026C42.6447 62.613 43.2858 63.1263 44.694 63.1263C46.1017 63.1263 46.7433 62.613 47.6285 61.9026C48.6924 61.0547 50.0158 59.9971 52.5224 59.9971C53.3857 59.9971 54.087 60.6983 54.087 61.5617C54.087 62.4251 53.3857 63.1263 52.5224 63.1263C51.1141 63.1263 50.473 63.6391 49.5873 64.3495C48.5234 65.1974 47.1999 66.2551 44.694 66.2551Z" fill="black"/>
<path d="M44.694 75.6418C42.1875 75.6418 40.864 74.5842 39.8036 73.7362C38.915 73.0258 38.2733 72.5131 36.8651 72.5131C35.4603 72.5131 34.8536 72.9978 33.9335 73.7334C32.873 74.5842 31.5524 75.6418 29.0465 75.6418C26.5434 75.6418 25.2228 74.5842 24.1618 73.7362C23.2451 72.9978 22.6384 72.5131 21.2336 72.5131C20.3696 72.5131 19.6689 71.8118 19.6689 70.9484C19.6689 70.085 20.3696 69.3838 21.2336 69.3838C23.7367 69.3838 25.0601 70.4414 26.1206 71.2928C27.0344 72.0278 27.6445 72.5131 29.0465 72.5131C30.4513 72.5131 31.0614 72.0278 31.981 71.2893C33.042 70.4414 34.362 69.3838 36.8651 69.3838C39.3716 69.3838 40.695 70.4414 41.7561 71.2893C42.6447 71.9997 43.2858 72.5131 44.694 72.5131C46.1017 72.5131 46.7433 71.9997 47.6285 71.2893C48.6924 70.4414 50.0158 69.3838 52.5224 69.3838C53.3857 69.3838 54.087 70.085 54.087 70.9484C54.087 71.8118 53.3857 72.5131 52.5224 72.5131C51.1141 72.5131 50.473 73.0258 49.5873 73.7362C48.5234 74.5842 47.1999 75.6418 44.694 75.6418Z" fill="black"/>
<path d="M65.037 31.8371C64.1736 31.8371 63.473 31.1365 63.473 30.2731C63.473 20.7827 55.7506 13.0638 46.2636 13.0638C42.7001 13.0638 36.8586 14.9321 35.1565 18.4395C34.7743 19.2186 33.8422 19.5406 33.0659 19.1619C32.2873 18.7866 31.9647 17.8511 32.34 17.0753C34.862 11.875 42.2183 9.93506 46.2636 9.93506C57.4779 9.93506 66.6017 19.0588 66.6017 30.2731C66.6017 31.1365 65.901 31.8371 65.037 31.8371Z" fill="black"/>
<path d="M46.2643 6.80608C45.4009 6.80608 44.7002 6.10483 44.7002 5.24144V2.11274C44.7002 1.24877 45.4009 0.548096 46.2643 0.548096C47.1282 0.548096 47.8289 1.24877 47.8289 2.11274V5.24144C47.8289 6.10483 47.1282 6.80608 46.2643 6.80608Z" fill="black"/>
<path d="M28.5643 14.1375C28.1638 14.1375 27.7628 13.9839 27.4563 13.6803L25.2442 11.4682C24.6341 10.8581 24.6341 9.86636 25.2442 9.2562C25.8544 8.64604 26.8461 8.64604 27.4563 9.2562L29.6683 11.4682C30.2785 12.0784 30.2785 13.0701 29.6683 13.6803C29.3652 13.9839 28.9648 14.1375 28.5643 14.1375Z" fill="black"/>
<path d="M74.4248 31.837H71.2961C70.4327 31.837 69.7314 31.1363 69.7314 30.2729C69.7314 29.4089 70.4327 28.7083 71.2961 28.7083H74.4248C75.2888 28.7083 75.9894 29.4089 75.9894 30.2729C75.9894 31.1363 75.2888 31.837 74.4248 31.837Z" fill="black"/>
<path d="M63.965 14.1375C63.5645 14.1375 63.164 13.9839 62.8575 13.6803C62.2474 13.0701 62.2474 12.0784 62.8575 11.4682L65.0696 9.2562C65.6797 8.64604 66.6714 8.64604 67.2816 9.2562C67.8918 9.86636 67.8918 10.8581 67.2816 11.4682L65.0696 13.6803C64.7659 13.9839 64.3654 14.1375 63.965 14.1375Z" fill="black"/>
<path d="M58.7886 63.1263C57.9246 63.1263 57.224 62.4251 57.224 61.5617C57.224 60.6983 57.9246 59.997 58.7886 59.997C66.5511 59.997 72.8686 53.68 72.8686 45.917C72.8686 38.1545 66.5511 31.837 58.7886 31.837C57.421 31.837 55.991 32.0873 54.4207 32.607C53.6444 32.8636 52.8091 32.4786 52.4928 31.731C49.2953 24.1931 41.9425 19.3216 33.7572 19.3216C23.5352 19.3216 14.8681 26.9683 13.598 37.1095C13.5195 37.7569 13.0439 38.2829 12.412 38.4358C7.48091 39.6281 4.03251 43.9931 4.03251 49.0463C4.03251 55.0848 8.94529 59.997 14.9838 59.997C15.8472 59.997 16.5485 60.6983 16.5485 61.5617C16.5485 62.4251 15.8472 63.1263 14.9838 63.1263C7.2208 63.1263 0.903809 56.8088 0.903809 49.0463C0.903809 42.9012 4.85866 37.5507 10.644 35.6824C12.5558 24.5002 22.3115 16.1929 33.7572 16.1929C42.7343 16.1929 50.8411 21.2678 54.7896 29.2371C56.1755 28.8836 57.4961 28.7083 58.7886 28.7083C68.275 28.7083 75.9973 36.4272 75.9973 45.917C75.9973 55.4074 68.275 63.1263 58.7886 63.1263Z" fill="black"/>
</svg>
