<svg width="112" height="104" viewBox="0 0 112 104" fill="none" xmlns="http://www.w3.org/2000/svg">
<path d="M69.7549 65.2015C69.7549 75.8689 61.1078 84.5137 50.4428 84.5137C39.7754 84.5137 31.1306 75.8689 31.1306 65.2015C31.1306 58.0939 34.4929 50.922 38.4096 44.9756H62.476C66.3927 50.922 69.7549 58.0939 69.7549 65.2015Z" fill="#6582FD"/>
<path d="M36.285 78.3322C38.1063 80.2967 40.3155 81.8618 42.7728 82.9285L68.4766 57.2247C67.6585 54.5484 66.5013 51.9343 65.1624 49.4551L36.285 78.3322Z" fill="#4369FC"/>
<path d="M62.3996 44.8631C58.3527 38.7489 53.7331 33.9473 51.6151 31.8733C50.9643 31.2361 49.9242 31.2325 49.2734 31.8695C47.1442 33.9539 42.478 38.8039 38.4109 44.9756C36.3377 48.1218 36.5454 52.2946 38.9834 55.1674C41.8617 58.5586 45.8988 60.6676 50.3692 60.6676C54.9012 60.6676 58.9883 58.5001 61.8737 55.0267C64.2725 52.1392 64.4717 47.9936 62.3996 44.8631ZM83.1042 70.8484C83.1042 76.1809 78.7807 80.5045 73.4482 80.5045C68.1157 80.5045 63.7921 76.1809 63.7921 70.8484C63.7921 66.5748 66.2239 62.2536 68.6463 59.0079H78.25C80.6724 62.2536 83.1042 66.5748 83.1042 70.8484Z" fill="#8298FD"/>
<path d="M78.2495 59.0065C76.5684 56.755 74.8918 55.0222 74.0344 54.1827C73.8778 54.0293 73.6674 53.9434 73.4481 53.9434C73.2289 53.9434 73.0184 54.0293 72.8618 54.1827C72.0092 55.0177 70.3455 56.7369 68.6734 58.971C65.7789 62.8384 68.3767 68.4362 73.2052 68.5769C73.4849 68.5851 73.765 68.5767 74.0437 68.5517C78.6774 68.135 81.0328 62.734 78.2495 59.0065Z" fill="#9EAFFD"/>
<path d="M57.1176 103.943C31.1525 103.943 10.0283 82.8189 10.0283 56.8539C10.0283 30.8888 31.1525 9.76465 57.1176 9.76465C83.0826 9.76465 104.207 30.8888 104.207 56.8539C104.207 82.8189 83.0826 103.943 57.1176 103.943ZM34.2708 85.2425C33.1875 86.3259 33.344 88.1243 34.598 89.0043C41.219 93.6498 49.006 96.1055 57.1173 96.1055C78.7757 96.1057 96.3694 78.5118 96.3694 56.8534C96.3694 48.7421 93.9137 40.9551 89.2682 34.3341C88.3882 33.0801 86.5896 32.9235 85.5064 34.0069L34.2708 85.2425ZM57.1178 17.6021C35.4594 17.6018 17.8657 35.1957 17.8657 56.8541C17.8657 64.9654 20.3214 72.7524 24.9669 79.3734C25.8469 80.6274 27.6456 80.784 28.7287 79.7006L79.964 28.4653C81.0474 27.3819 80.8908 25.5834 79.6368 24.7035C73.0161 20.0577 65.2291 17.6023 57.1178 17.6021Z" fill="#FD2C8E"/>
<path d="M50.3775 25.2616C52.966 25.2616 55.0644 23.1632 55.0644 20.5746C55.0644 17.9861 52.966 15.8877 50.3775 15.8877C47.789 15.8877 45.6906 17.9861 45.6906 20.5746C45.6906 23.1632 47.789 25.2616 50.3775 25.2616Z" fill="#8298FD"/>
<path d="M57.1176 9.76465C31.1525 9.76465 10.0283 30.8888 10.0283 56.8539C10.0283 82.8189 31.1525 103.943 57.1176 103.943C83.0826 103.943 104.207 82.8189 104.207 56.8539C104.207 30.8888 83.0826 9.76465 57.1176 9.76465ZM24.9669 79.3734C20.3214 72.7524 17.8657 64.9654 17.8657 56.8544C17.8655 35.196 35.4594 17.6023 57.1178 17.6023C65.2291 17.6023 73.0161 20.058 79.6371 24.7035C80.8913 25.5834 81.0477 27.3821 79.9643 28.4653L62.8603 45.5693C58.7092 39.12 53.8148 34.0267 51.6156 31.8735C51.3022 31.5666 50.8811 31.3947 50.4424 31.3947C50.0038 31.3947 49.5826 31.5666 49.2692 31.8735C45.0834 35.9722 31.1304 50.7204 31.1304 65.2024C31.1266 68.5561 32.0008 71.8524 33.666 74.7636L28.729 79.7006C27.6456 80.784 25.8469 80.6274 24.9669 79.3734ZM57.1173 96.1057C49.006 96.1057 41.219 93.65 34.598 89.0045C33.3438 88.1246 33.1875 86.3259 34.2708 85.2427L38.8586 80.655C42.0857 83.0781 46.0961 84.5146 50.4425 84.5146C56.7454 84.5146 62.3415 81.494 65.8666 76.8228C67.6348 79.0636 70.3729 80.5037 73.4489 80.5037C78.7816 80.5037 83.1048 76.1806 83.1048 70.8478C83.1048 63.607 76.1282 56.2328 74.0355 54.1833C73.8787 54.03 73.6682 53.9441 73.4489 53.9441C73.2296 53.9441 73.0191 54.03 72.8624 54.1833C72.0459 54.9826 70.4864 56.5948 68.8876 58.6906C68.3703 56.6668 67.6462 54.6709 66.7808 52.733L85.5064 34.0074C86.5898 32.924 88.3882 33.0806 89.2682 34.3346C93.9137 40.9556 96.3694 48.7426 96.3694 56.8536C96.3694 78.512 78.7757 96.1057 57.1173 96.1057Z" fill="url(#paint0_linear_27_605)"/>
<path d="M97.5704 99.6865H78.722C77.4078 99.6865 76.3425 98.6212 76.3425 97.307V78.4586C76.3425 77.1444 77.4078 76.0791 78.722 76.0791H97.5704C98.8847 76.0791 99.95 77.1444 99.95 78.4586V97.307C99.95 98.6212 98.8847 99.6865 97.5704 99.6865Z" fill="#FF7EB7"/>
<path d="M95.6874 94.3288L94.4539 82.5435C94.3665 81.7086 93.3495 81.3481 92.7558 81.9418L90.5129 84.1847L87.0136 80.6854C86.7905 80.4623 86.4878 80.3369 86.1723 80.3369C85.8568 80.3369 85.5541 80.4623 85.331 80.6854L80.9477 85.0687C80.7246 85.2918 80.5992 85.5944 80.5992 85.91C80.5992 86.2255 80.7246 86.5281 80.9477 86.7513L84.4468 90.2503L82.2039 92.4933C81.6102 93.087 81.9704 94.1037 82.8056 94.1913L94.5909 95.4248C94.7387 95.4404 94.8881 95.4227 95.0281 95.3732C95.1682 95.3236 95.2954 95.2433 95.4005 95.1383C95.5056 95.0333 95.5859 94.9061 95.6355 94.766C95.6852 94.626 95.7029 94.4766 95.6874 94.3288Z" fill="white"/>
<path d="M12.7251 98.1255C12.4095 98.1255 12.1069 98.0001 11.8838 97.777C11.6607 97.5539 11.5353 97.2513 11.5353 96.9357C11.5349 96.5362 11.376 96.1531 11.0935 95.8706C10.811 95.5881 10.4279 95.4292 10.0284 95.4288C9.71284 95.4288 9.41022 95.3034 9.1871 95.0803C8.96397 94.8572 8.83862 94.5545 8.83862 94.239C8.83862 93.9235 8.96397 93.6208 9.1871 93.3977C9.41022 93.1746 9.71284 93.0492 10.0284 93.0492C10.4279 93.0488 10.811 92.8899 11.0935 92.6074C11.376 92.3249 11.5349 91.9418 11.5353 91.5423C11.5353 91.2268 11.6607 90.9241 11.8838 90.701C12.1069 90.4779 12.4095 90.3525 12.7251 90.3525C13.0406 90.3525 13.3433 90.4779 13.5664 90.701C13.7895 90.9241 13.9149 91.2268 13.9149 91.5423C13.9153 91.9418 14.0742 92.3249 14.3567 92.6074C14.6392 92.8899 15.0223 93.0488 15.4218 93.0492C15.7373 93.0492 16.04 93.1746 16.2631 93.3977C16.4862 93.6208 16.6116 93.9235 16.6116 94.239C16.6116 94.5545 16.4862 94.8572 16.2631 95.0803C16.04 95.3034 15.7373 95.4288 15.4218 95.4288C15.0223 95.4292 14.6392 95.5881 14.3567 95.8706C14.0742 96.1531 13.9153 96.5362 13.9149 96.9357C13.9149 97.2513 13.7895 97.5539 13.5664 97.777C13.3433 98.0001 13.0406 98.1255 12.7251 98.1255Z" fill="#01EBA4"/>
<path d="M95.6931 17.1206C95.3776 17.1206 95.0749 16.9952 94.8518 16.7721C94.6287 16.549 94.5033 16.2464 94.5033 15.9308C94.5029 15.5313 94.344 15.1483 94.0615 14.8657C93.779 14.5832 93.3959 14.4243 92.9964 14.4239C92.6809 14.4239 92.3782 14.2985 92.1551 14.0754C91.932 13.8523 91.8066 13.5497 91.8066 13.2341C91.8066 12.9186 91.932 12.616 92.1551 12.3928C92.3782 12.1697 92.6809 12.0444 92.9964 12.0444C93.3959 12.0439 93.779 11.885 94.0615 11.6025C94.344 11.32 94.5029 10.9369 94.5033 10.5374C94.5033 10.2219 94.6287 9.91925 94.8518 9.69613C95.0749 9.47301 95.3776 9.34766 95.6931 9.34766C96.0086 9.34766 96.3113 9.47301 96.5344 9.69613C96.7575 9.91925 96.8829 10.2219 96.8829 10.5374C96.8833 10.9369 97.0422 11.32 97.3247 11.6025C97.6072 11.885 97.9903 12.0439 98.3898 12.0444C98.7054 12.0444 99.008 12.1697 99.2311 12.3928C99.4542 12.616 99.5796 12.9186 99.5796 13.2341C99.5796 13.5497 99.4542 13.8523 99.2311 14.0754C99.008 14.2985 98.7054 14.4239 98.3898 14.4239C97.9903 14.4243 97.6072 14.5832 97.3247 14.8657C97.0422 15.1483 96.8833 15.5313 96.8829 15.9308C96.8829 16.2464 96.7575 16.549 96.5344 16.7721C96.3113 16.9952 96.0086 17.1206 95.6931 17.1206Z" fill="#FF5BA7"/>
<path d="M83.1044 9.06073C81.2538 9.06073 79.7483 7.55521 79.7483 5.70466C79.7483 5.36273 79.7483 4.32193 81.7854 1.41868C82.0869 0.988934 82.5799 0.732422 83.1044 0.732422C83.6288 0.732422 84.1218 0.988934 84.4233 1.41868C86.4604 4.32216 86.4604 5.36273 86.4604 5.70466C86.4604 7.55545 84.9549 9.06073 83.1044 9.06073ZM83.1044 3.72705C82.42 4.81115 82.1409 5.48955 82.1278 5.71109C82.1278 6.24339 82.5659 6.68145 83.1044 6.68145C83.3625 6.68114 83.6101 6.57875 83.793 6.3966C83.976 6.21445 84.0795 5.96734 84.0809 5.70918C84.0662 5.48527 83.7868 4.80735 83.1044 3.72705Z" fill="#01EBA4"/>
<path d="M108.37 89.239C106.519 89.239 105.014 87.7335 105.014 85.8829C105.014 85.5408 105.014 84.4997 107.051 81.5967C107.2 81.3849 107.397 81.2121 107.627 81.0927C107.856 80.9733 108.111 80.9108 108.37 80.9107C108.628 80.9109 108.884 80.9733 109.113 81.0927C109.343 81.2121 109.54 81.385 109.689 81.5967C111.726 84.5002 111.726 85.541 111.726 85.8829C111.726 87.7335 110.22 89.239 108.37 89.239ZM108.37 83.9053C107.686 84.9889 107.406 85.6678 107.393 85.8894C107.393 86.4217 107.831 86.8597 108.37 86.8597C108.628 86.8594 108.876 86.7569 109.059 86.5748C109.241 86.3927 109.345 86.1456 109.346 85.8875C109.331 85.6635 109.052 84.9856 108.37 83.9053ZM3.69897 87.091C1.84842 87.091 0.342896 85.5855 0.342896 83.7349C0.342896 83.3928 0.342896 82.352 2.38 79.4489C2.52863 79.2372 2.72605 79.0642 2.95557 78.9448C3.18509 78.8254 3.43999 78.7629 3.69873 78.7627C3.95751 78.7629 4.21268 78.8253 4.44225 78.9448C4.67181 79.0642 4.86926 79.2371 5.01793 79.4489C7.0548 82.3522 7.0548 83.393 7.0548 83.7349C7.0548 85.5855 5.54952 87.091 3.69897 87.091ZM3.69897 81.7571C3.01462 82.841 2.7355 83.5194 2.72241 83.7409C2.72241 84.2732 3.16048 84.7113 3.69897 84.7113C3.95715 84.7109 4.20471 84.6084 4.38766 84.4262C4.5706 84.2441 4.67408 83.9969 4.67552 83.7387C4.66053 83.5153 4.38118 82.8376 3.69897 81.7571Z" fill="#6582FD"/>
<defs>
<linearGradient id="paint0_linear_27_605" x1="10.0283" y1="9.76465" x2="104.207" y2="9.76465" gradientUnits="userSpaceOnUse">
<stop stop-color="#6581FC" stop-opacity="0.6"/>
<stop offset="0.05" stop-color="#839AFD" stop-opacity="0.57"/>
<stop offset="0.116" stop-color="#A4B5FD" stop-opacity="0.53"/>
<stop offset="0.19" stop-color="#C1CCFE" stop-opacity="0.486"/>
<stop offset="0.273" stop-color="#D8DFFE" stop-opacity="0.436"/>
<stop offset="0.368" stop-color="#E9EDFF" stop-opacity="0.379"/>
<stop offset="0.482" stop-color="#F6F7FF" stop-opacity="0.31"/>
<stop offset="0.635" stop-color="#FDFDFF" stop-opacity="0.218"/>
<stop offset="0.997" stop-color="white" stop-opacity="0"/>
</linearGradient>
</defs>
</svg>
