<svg width="82" height="76" viewBox="0 0 82 76" fill="none" xmlns="http://www.w3.org/2000/svg">
<path d="M72.0752 27.0698C72.0752 36.7426 64.2338 44.584 54.561 44.584C44.8882 44.584 37.0469 36.7426 37.0469 27.0698C37.0469 17.397 44.8882 9.55566 54.561 9.55566C64.2338 9.55566 72.0752 17.397 72.0752 27.0698Z" fill="#FDD020"/>
<path d="M80.1584 28.4169H77.4639C76.7199 28.4169 76.1167 27.8137 76.1167 27.0697C76.1167 26.3256 76.7199 25.7224 77.4639 25.7224H80.1584C80.9024 25.7224 81.5057 26.3256 81.5057 27.0697C81.5057 27.8137 80.9024 28.4169 80.1584 28.4169Z" fill="#FDD020"/>
<path d="M51.8668 5.51372C51.1228 5.51372 50.5195 4.91049 50.5195 4.16648V1.472C50.5195 0.727989 51.1228 0.124756 51.8668 0.124756C52.6108 0.124756 53.214 0.727989 53.214 1.472V4.16648C53.214 4.91049 52.6108 5.51372 51.8668 5.51372Z" fill="#FDD020"/>
<path d="M70.7275 12.2499C70.1828 12.2499 69.6914 11.9217 69.4829 11.4184C69.2743 10.9152 69.3901 10.3356 69.7749 9.95015L72.4694 7.25566C72.8075 6.9057 73.3088 6.76492 73.7798 6.88859C74.2508 7.01161 74.6186 7.37934 74.7416 7.85035C74.8652 8.32135 74.7245 8.82262 74.3745 9.16075L71.68 11.8552C71.4274 12.1078 71.0847 12.2499 70.7275 12.2499Z" fill="#FDD020"/>
<path d="M63.1546 60.7507C68.2357 60.8731 72.9833 58.2319 75.5594 53.8514C78.1355 49.4709 78.1355 44.0378 75.5594 39.6573C72.9833 35.2761 68.2357 32.6356 63.1546 32.758C62.2047 32.758 61.2574 32.8514 60.3253 33.0356C59.159 27.6426 54.3686 23.8081 48.8514 23.8509C47.164 23.8516 45.4971 24.212 43.9604 24.9087C41.2554 17.9554 34.0179 13.8782 26.6692 15.1675C19.3199 16.4569 13.9027 22.7536 13.7257 30.2128C13.7297 31.9561 14.0389 33.6848 14.6395 35.3215C10.0682 35.3485 5.86265 37.8272 3.62536 41.813C1.38741 45.7995 1.46174 50.6806 3.81942 54.5967C6.17709 58.5134 10.4556 60.8626 15.0256 60.7507" fill="#A3D4F7"/>
<path d="M57.255 66.1397C57.255 69.1157 54.8421 71.5286 51.866 71.5286C48.89 71.5286 46.4771 69.1157 46.4771 66.1397C46.4771 62.0979 51.866 52.6672 51.866 52.6672C51.866 52.6672 57.255 62.0979 57.255 66.1397Z" fill="#60A2D7"/>
<path d="M43.7823 52.667C43.7823 55.643 41.3694 58.056 38.3934 58.056C35.4173 58.056 33.0044 55.643 33.0044 52.667C33.0044 48.6253 38.3934 39.1946 38.3934 39.1946C38.3934 39.1946 43.7823 48.6253 43.7823 52.667Z" fill="#60A2D7"/>
<path d="M31.6578 68.8342C31.6578 71.8103 29.2449 74.2232 26.2689 74.2232C23.2928 74.2232 20.8799 71.8103 20.8799 68.8342C20.8799 64.7925 26.2689 55.3618 26.2689 55.3618C26.2689 55.3618 31.6578 64.7925 31.6578 68.8342Z" fill="#60A2D7"/>
<path d="M77.4639 25.7224C76.7199 25.7224 76.1167 26.3256 76.1167 27.0697C76.1167 27.8137 76.7199 28.4169 77.4639 28.4169H80.1584C80.9024 28.4169 81.5057 27.8137 81.5057 27.0697C81.5057 26.3256 80.9024 25.7224 80.1584 25.7224H77.4639Z" fill="black"/>
<path d="M51.8668 5.51372C52.6108 5.51372 53.214 4.91049 53.214 4.16648V1.472C53.214 0.727989 52.6108 0.124756 51.8668 0.124756C51.1228 0.124756 50.5195 0.727989 50.5195 1.472V4.16648C50.5195 4.91049 51.1228 5.51372 51.8668 5.51372Z" fill="black"/>
<path d="M72.4699 7.25566L69.7754 9.95015C69.4255 10.2883 69.2847 10.7895 69.4084 11.2606C69.5314 11.7316 69.8991 12.0993 70.3701 12.2223C70.8411 12.346 71.3424 12.2052 71.6805 11.8552L74.375 9.16075C74.725 8.82262 74.8658 8.32135 74.7421 7.85035C74.6191 7.37934 74.2513 7.01161 73.7803 6.88859C73.3093 6.76492 72.8081 6.9057 72.4699 7.25566Z" fill="black"/>
<path d="M51.8666 72.8761C55.5853 72.8715 58.5982 69.8586 58.6028 66.1398C58.6028 61.8639 53.6059 52.9963 53.0362 51.9938C52.7764 51.6011 52.3376 51.3643 51.8666 51.3643C51.3956 51.3643 50.9568 51.6011 50.697 51.9938C50.1273 52.9963 45.1304 61.8639 45.1304 66.1398C45.135 69.8586 48.1479 72.8715 51.8666 72.8761ZM51.8666 55.4889C53.5671 58.7451 55.9083 63.7578 55.9083 66.1398C55.9083 68.3719 54.0986 70.1816 51.8666 70.1816C49.6346 70.1816 47.8249 68.3719 47.8249 66.1398C47.8249 63.7578 50.1661 58.7451 51.8666 55.4889Z" fill="black"/>
<path d="M38.3939 59.4034C42.1127 59.3988 45.1255 56.3859 45.1301 52.6672C45.1301 48.3913 40.1332 39.5237 39.5636 38.5211C39.3037 38.1284 38.8649 37.8916 38.3939 37.8916C37.9229 37.8916 37.4841 38.1284 37.2243 38.5211C36.6546 39.5237 31.6577 48.3913 31.6577 52.6672C31.6623 56.3859 34.6752 59.3988 38.3939 59.4034ZM38.3939 42.0162C40.0944 45.2725 42.4357 50.2852 42.4357 52.6672C42.4357 54.8992 40.626 56.7089 38.3939 56.7089C36.1619 56.7089 34.3522 54.8992 34.3522 52.6672C34.3522 50.2852 36.6934 45.2725 38.3939 42.0162Z" fill="black"/>
<path d="M25.0988 54.6881C24.5291 55.6907 19.5322 64.5583 19.5322 68.8342C19.5322 72.5542 22.5484 75.5704 26.2684 75.5704C29.9885 75.5704 33.0046 72.5542 33.0046 68.8342C33.0046 64.5583 28.0077 55.6907 27.4381 54.6881C27.1782 54.2954 26.7394 54.0586 26.2684 54.0586C25.7974 54.0586 25.3587 54.2954 25.0988 54.6881ZM26.2684 72.8759C24.0364 72.8759 22.2267 71.0662 22.2267 68.8342C22.2267 66.4522 24.5679 61.4395 26.2684 58.1832C27.9689 61.4395 30.3102 66.4522 30.3102 68.8342C30.3102 71.0662 28.5005 72.8759 26.2684 72.8759Z" fill="black"/>
<path d="M15.0255 62.098C15.7701 62.098 16.3727 61.4948 16.3727 60.7508C16.3727 60.0067 15.7701 59.4035 15.0255 59.4035C10.9351 59.5114 7.10122 57.4123 4.98891 53.9073C2.87595 50.4024 2.81017 46.0324 4.8159 42.4656C6.82164 38.8982 10.5897 36.6846 14.6821 36.6688C15.1149 36.6563 15.5156 36.4372 15.7583 36.0787C16.0017 35.7209 16.0576 35.2676 15.9096 34.8611C15.3616 33.3724 15.0794 31.7989 15.0755 30.2128C15.1801 22.4359 21.5564 16.2102 29.3333 16.2918C32.7764 16.2964 36.1044 17.5298 38.7186 19.7704C39.0239 20.0401 39.3192 20.3092 39.6008 20.592C39.687 20.6795 39.7797 20.7631 39.8705 20.8617C40.2146 21.2347 40.5389 21.6261 40.8415 22.034C40.9145 22.1307 40.9869 22.2274 41.0572 22.3261C41.3559 22.7477 41.6315 23.1852 41.8815 23.6371C41.9302 23.7246 41.9749 23.8147 42.0164 23.9062C42.2729 24.3884 42.5005 24.8857 42.6979 25.3949C42.8301 25.7422 43.0992 26.0198 43.4425 26.1619C43.7859 26.304 44.1727 26.2981 44.5115 26.1454C45.8732 25.5251 47.352 25.2034 48.848 25.2021C53.7232 25.1659 57.9589 28.5452 59.0062 33.306C59.1555 34.0309 59.8607 34.4999 60.587 34.3572C60.9909 34.2776 61.3955 34.2223 61.7994 34.1789C62 34.1592 62.2033 34.1533 62.4039 34.1427C62.6052 34.1322 62.7993 34.1158 62.996 34.1144C63.2545 34.1144 63.513 34.1236 63.7716 34.1361C63.9064 34.1361 64.0531 34.1467 64.1932 34.1579C64.4939 34.1815 64.7932 34.2184 65.0918 34.2625C65.178 34.275 65.2655 34.2868 65.3517 34.3019C65.6747 34.3559 65.9937 34.4216 66.3101 34.4999L66.493 34.5453C66.818 34.6302 67.1384 34.7262 67.4548 34.8354L67.6278 34.8973C67.9389 35.0091 68.2475 35.1315 68.5487 35.2663C68.6152 35.2959 68.6836 35.3268 68.7428 35.3577C69.0355 35.4926 69.3237 35.6393 69.6052 35.7972C73.5996 38.0009 76.0901 42.1926 76.1165 46.754C76.0211 53.8225 70.2236 59.4805 63.1545 59.4035C62.4105 59.4035 61.8073 60.0067 61.8073 60.7508C61.8073 61.4948 62.4105 62.098 63.1545 62.098C71.7109 62.1736 78.7142 55.3098 78.8109 46.754C78.7919 41.671 76.2414 36.9313 72.0103 34.1144C72.9345 31.8804 73.4141 29.4872 73.422 27.0697C73.4272 18.7731 68.0073 11.4481 60.0713 9.02798C52.1352 6.60781 43.5498 9.66147 38.9245 16.549C36.0932 14.6307 32.7534 13.6025 29.3333 13.5973C20.0678 13.5151 12.4829 20.9473 12.377 30.2128C12.379 31.5305 12.5428 32.8422 12.8645 34.1197C5.89738 35.0604 0.692607 40.9973 0.670898 48.0276C0.759706 55.8723 7.18016 62.1664 15.0255 62.098ZM54.5606 10.9028C63.4854 10.9127 70.7176 18.1449 70.7275 27.0697C70.7288 29.032 70.367 30.9779 69.6605 32.8086C69.6309 32.7955 69.5986 32.7863 69.569 32.7725C69.1375 32.5823 68.6968 32.4113 68.2461 32.2607C68.1797 32.239 68.1113 32.212 68.0521 32.1903C67.5778 32.037 67.0943 31.9074 66.6022 31.7982C66.5535 31.7877 66.5068 31.7732 66.4595 31.762C65.9707 31.6581 65.4734 31.5805 64.9695 31.5239C64.9182 31.5167 64.8669 31.5048 64.8142 31.4996C64.263 31.4417 63.7091 31.4127 63.1545 31.4121C62.5408 31.4114 61.9277 31.4469 61.3185 31.518C59.5588 26.1251 54.5198 22.4833 48.8466 22.5037C48.4875 22.5037 48.1329 22.5182 47.7829 22.5471C46.7278 22.6313 45.6877 22.8438 44.6839 23.1786C44.6681 23.1438 44.6464 23.1115 44.6286 23.0767C44.4457 22.6991 44.2464 22.3313 44.0359 21.9715C43.9484 21.8222 43.8524 21.6768 43.7662 21.5301C43.6129 21.286 43.455 21.0459 43.2893 20.8117C43.1735 20.6473 43.0577 20.4841 42.9367 20.3256C42.7827 20.1217 42.6216 19.921 42.4571 19.7296C42.021 19.1968 41.5526 18.6909 41.0546 18.2159C44.0405 13.6624 49.1157 10.9146 54.5606 10.9028Z" fill="black"/>
</svg>
