<svg width="76" height="76" viewBox="0 0 76 76" fill="none" xmlns="http://www.w3.org/2000/svg">
<path d="M45.6692 10.0898C41.6267 10.0898 34.271 12.0297 31.7456 17.2301C31.5113 17.7148 31.5422 18.2843 31.827 18.7415C32.1117 19.1981 32.6159 19.4765 33.1538 19.4765C41.3236 19.4765 48.6828 24.3481 51.8957 31.8859C52.2148 32.6336 53.0536 33.0152 53.8201 32.7585C57.6656 31.5072 60.7037 31.8326 63.7952 33.1498C63.9923 33.234 64.202 33.2747 64.4082 33.2747C64.693 33.2747 64.9777 33.1968 65.2281 33.0432C65.6629 32.7808 65.9385 32.3208 65.9694 31.8137C66.3418 26.1098 64.4082 20.6842 60.5193 16.5323C56.6864 12.4365 51.2764 10.0898 45.6692 10.0898Z" fill="#FFC107"/>
<path d="M65.0285 30.2713C61.6116 28.8132 58.0881 28.3812 54.1929 29.3919C50.2254 21.4226 42.1152 16.3477 33.1542 16.3477C21.6993 16.3477 11.9436 24.655 10.0381 35.8343C4.25563 37.7181 0.300781 43.0714 0.300781 49.2011C0.300781 56.9635 6.61777 63.2811 14.3808 63.2811H58.1855C67.6719 63.2811 75.3943 55.5622 75.3943 46.0718C75.3943 39.2134 71.3266 33.015 65.0285 30.2713Z" fill="#D0DAD9"/>
<path d="M17.5094 75.7966C16.646 75.7966 15.9453 75.0959 15.9453 74.232V67.9746C15.9453 67.1106 16.646 66.4099 17.5094 66.4099C18.3733 66.4099 19.074 67.1106 19.074 67.9746V74.232C19.074 75.0959 18.3733 75.7966 17.5094 75.7966Z" fill="black"/>
<path d="M20.2188 74.2322C19.953 74.2322 19.6837 74.1669 19.4368 74.0226L14.017 70.8939C13.2693 70.4619 13.0127 69.5045 13.4446 68.7569C13.8766 68.0092 14.834 67.7588 15.5816 68.1845L21.0009 71.3132C21.7485 71.7452 22.0052 72.7026 21.5738 73.4502C21.2856 73.9509 20.7568 74.2322 20.2188 74.2322Z" fill="black"/>
<path d="M14.8 74.2321C14.2615 74.2321 13.7333 73.9508 13.4451 73.45C13.0102 72.7024 13.2669 71.745 14.0174 71.3131L19.4372 68.1844C20.1814 67.7552 21.1422 68.0056 21.5742 68.7567C22.0091 69.5044 21.7524 70.4617 21.0013 70.8937L15.5821 74.0224C15.3351 74.1668 15.0659 74.2321 14.8 74.2321Z" fill="black"/>
<path d="M30.0251 75.7966C29.1611 75.7966 28.4604 75.0959 28.4604 74.232V67.9746C28.4604 67.1106 29.1611 66.4099 30.0251 66.4099C30.8885 66.4099 31.5892 67.1106 31.5892 67.9746V74.232C31.5892 75.0959 30.8885 75.7966 30.0251 75.7966Z" fill="black"/>
<path d="M32.7345 74.2322C32.4687 74.2322 32.1994 74.1669 31.9525 74.0226L26.5333 70.8939C25.7856 70.4619 25.529 69.5045 25.9604 68.7569C26.3923 68.0092 27.3497 67.7588 28.0973 68.1845L33.5171 71.3132C34.2648 71.7452 34.5215 72.7026 34.0895 73.4502C33.8013 73.9509 33.2731 74.2322 32.7345 74.2322Z" fill="black"/>
<path d="M27.3151 74.2321C26.7772 74.2321 26.2484 73.9508 25.9602 73.45C25.5254 72.7024 25.782 71.745 26.5331 71.3131L31.9523 68.1844C32.6971 67.7552 33.6573 68.0056 34.0893 68.7567C34.5242 69.5044 34.2675 70.4617 33.517 70.8937L28.0972 74.0224C27.8503 74.1668 27.581 74.2321 27.3151 74.2321Z" fill="black"/>
<path d="M42.5407 75.7966C41.6773 75.7966 40.9761 75.0959 40.9761 74.232V67.9746C40.9761 67.1106 41.6773 66.4099 42.5407 66.4099C43.4041 66.4099 44.1054 67.1106 44.1054 67.9746V74.232C44.1054 75.0959 43.4041 75.7966 42.5407 75.7966Z" fill="black"/>
<path d="M45.2511 74.2322C44.9846 74.2322 44.7159 74.1669 44.4684 74.0226L39.0492 70.8939C38.3016 70.4619 38.0449 69.5045 38.4769 68.7569C38.9083 68.0092 39.8662 67.7588 40.6139 68.1845L46.0331 71.3132C46.7807 71.7452 47.0374 72.7026 46.6054 73.4502C46.3178 73.9509 45.789 74.2322 45.2511 74.2322Z" fill="black"/>
<path d="M39.8308 74.2321C39.2929 74.2321 38.7641 73.9508 38.4765 73.45C38.0416 72.7024 38.2977 71.745 39.0488 71.3131L44.468 68.1844C45.2128 67.7552 46.1736 68.0056 46.605 68.7567C47.0399 69.5044 46.7838 70.4617 46.0327 70.8937L40.6134 74.0224C40.3659 74.1668 40.0972 74.2321 39.8308 74.2321Z" fill="black"/>
<path d="M23.7678 66.4101C22.9044 66.4101 22.2031 65.7094 22.2031 64.8455V58.5881C22.2031 57.7241 22.9044 57.0234 23.7678 57.0234C24.6312 57.0234 25.3324 57.7241 25.3324 58.5881V64.8455C25.3324 65.7094 24.6312 66.4101 23.7678 66.4101Z" fill="black"/>
<path d="M26.4771 64.8453C26.2107 64.8453 25.942 64.78 25.6945 64.6357L20.2753 61.507C19.5276 61.075 19.271 60.1176 19.7029 59.37C20.1344 58.6223 21.0923 58.3685 21.8399 58.7976L27.2592 61.9263C28.0068 62.3583 28.2635 63.3157 27.8315 64.0633C27.5439 64.564 27.0151 64.8453 26.4771 64.8453Z" fill="black"/>
<path d="M21.0574 64.8454C20.5194 64.8454 19.9906 64.5641 19.703 64.0634C19.2682 63.3157 19.5243 62.3584 20.2754 61.9264L25.6946 58.7977C26.4394 58.3657 27.4002 58.6189 27.8316 59.37C28.2664 60.1177 28.0103 61.075 27.2592 61.507L21.84 64.6357C21.5925 64.7801 21.3238 64.8454 21.0574 64.8454Z" fill="black"/>
<path d="M36.2828 66.4101C35.4194 66.4101 34.7188 65.7094 34.7188 64.8455V58.5881C34.7188 57.7241 35.4194 57.0234 36.2828 57.0234C37.1468 57.0234 37.8475 57.7241 37.8475 58.5881V64.8455C37.8475 65.7094 37.1468 66.4101 36.2828 66.4101Z" fill="black"/>
<path d="M38.9928 64.8453C38.7269 64.8453 38.4576 64.78 38.2107 64.6357L32.7909 61.507C32.0433 61.075 31.7866 60.1176 32.2186 59.37C32.6506 58.6223 33.6079 58.3685 34.3556 58.7976L39.7748 61.9263C40.5224 62.3583 40.7791 63.3157 40.3477 64.0633C40.0595 64.564 39.5307 64.8453 38.9928 64.8453Z" fill="black"/>
<path d="M33.5735 64.8454C33.0349 64.8454 32.5067 64.5641 32.2185 64.0634C31.7837 63.3157 32.0403 62.3584 32.7909 61.9264L38.2107 58.7977C38.9549 58.3657 39.9157 58.6189 40.3477 59.37C40.7825 60.1177 40.5258 61.075 39.7747 61.507L34.3555 64.6357C34.1086 64.7801 33.8393 64.8454 33.5735 64.8454Z" fill="black"/>
<path d="M48.7985 66.4101C47.9346 66.4101 47.2339 65.7094 47.2339 64.8455V58.5881C47.2339 57.7241 47.9346 57.0234 48.7985 57.0234C49.6619 57.0234 50.3626 57.7241 50.3626 58.5881V64.8455C50.3626 65.7094 49.6619 66.4101 48.7985 66.4101Z" fill="black"/>
<path d="M51.508 64.8453C51.2421 64.8453 50.9729 64.78 50.7259 64.6357L45.3067 61.507C44.5591 61.075 44.3024 60.1176 44.7338 59.37C45.1658 58.6223 46.1231 58.3685 46.8708 58.7976L52.2906 61.9263C53.0382 62.3583 53.2949 63.3157 52.8629 64.0633C52.5748 64.564 52.0465 64.8453 51.508 64.8453Z" fill="black"/>
<path d="M46.0891 64.8454C45.5511 64.8454 45.0223 64.5641 44.7341 64.0634C44.2993 63.3157 44.5559 62.3584 45.307 61.9264L50.7263 58.7977C51.4711 58.3657 52.4313 58.6189 52.8633 59.37C53.2981 60.1177 53.0414 61.075 52.2909 61.507L46.8711 64.6357C46.6242 64.7801 46.3549 64.8454 46.0891 64.8454Z" fill="black"/>
<path d="M64.4423 31.9919C63.5789 31.9919 62.8782 31.2912 62.8782 30.4279C62.8782 20.9375 55.1559 13.2185 45.6689 13.2185C42.1054 13.2185 36.2639 15.0868 34.5617 18.5942C34.183 19.3734 33.2475 19.6954 32.4712 19.3167C31.6926 18.9414 31.37 18.0059 31.7453 17.2301C34.2673 12.0297 41.6235 10.0898 45.6689 10.0898C56.8832 10.0898 66.0069 19.2136 66.0069 30.4279C66.0069 31.2912 65.3062 31.9919 64.4423 31.9919Z" fill="black"/>
<path d="M45.6695 6.96111C44.8061 6.96111 44.1055 6.25986 44.1055 5.39647V2.26776C44.1055 1.4038 44.8061 0.703125 45.6695 0.703125C46.5335 0.703125 47.2342 1.4038 47.2342 2.26776V5.39647C47.2342 6.25986 46.5335 6.96111 45.6695 6.96111Z" fill="black"/>
<path d="M27.9696 14.292C27.5691 14.292 27.1681 14.1385 26.8615 13.8348L24.6495 11.6228C24.0394 11.0126 24.0394 10.0209 24.6495 9.41074C25.2597 8.80059 26.2514 8.80059 26.8615 9.41074L29.0736 11.6228C29.6837 12.2329 29.6837 13.2247 29.0736 13.8348C28.7705 14.1385 28.37 14.292 27.9696 14.292Z" fill="black"/>
<path d="M73.8296 31.992H70.7009C69.8375 31.992 69.1362 31.2913 69.1362 30.4279C69.1362 29.564 69.8375 28.8633 70.7009 28.8633H73.8296C74.6935 28.8633 75.3942 29.564 75.3942 30.4279C75.3942 31.2913 74.6935 31.992 73.8296 31.992Z" fill="black"/>
<path d="M63.3698 14.292C62.9693 14.292 62.5688 14.1385 62.2623 13.8348C61.6521 13.2247 61.6521 12.2329 62.2623 11.6228L64.4743 9.41074C65.0845 8.80059 66.0762 8.80059 66.6864 9.41074C67.2965 10.0209 67.2965 11.0126 66.6864 11.6228L64.4743 13.8348C64.1707 14.1385 63.7702 14.292 63.3698 14.292Z" fill="black"/>
<path d="M58.1855 63.2811C57.3216 63.2811 56.6209 62.5798 56.6209 61.7164C56.6209 60.8531 57.3216 60.1518 58.1855 60.1518C65.948 60.1518 72.2656 53.8348 72.2656 46.0718C72.2656 38.3093 65.948 31.9918 58.1855 31.9918C56.818 31.9918 55.388 32.2421 53.8176 32.7618C53.0413 33.0184 52.206 32.6334 51.8897 31.8858C48.6923 24.3479 41.3395 19.4764 33.1542 19.4764C22.9322 19.4764 14.2651 27.1231 12.9949 37.2643C12.9164 37.9117 12.4409 38.4377 11.809 38.5906C6.87788 39.7829 3.42949 44.1479 3.42949 49.2011C3.42949 55.2396 8.34226 60.1518 14.3808 60.1518C15.2442 60.1518 15.9454 60.8531 15.9454 61.7164C15.9454 62.5798 15.2442 63.2811 14.3808 63.2811C6.61777 63.2811 0.300781 56.9635 0.300781 49.2011C0.300781 43.0559 4.25563 37.7055 10.041 35.8372C11.9528 24.655 21.7084 16.3477 33.1542 16.3477C42.1312 16.3477 50.238 21.4226 54.1866 29.3919C55.5725 29.0384 56.893 28.863 58.1855 28.863C67.6719 28.863 75.3943 36.582 75.3943 46.0718C75.3943 55.5622 67.6719 63.2811 58.1855 63.2811Z" fill="black"/>
</svg>
