<svg width="79" height="77" viewBox="0 0 79 77" fill="none" xmlns="http://www.w3.org/2000/svg">
<path d="M69.6687 26.8971C69.6687 36.2011 62.1262 43.7434 52.8224 43.7434C43.5185 43.7434 35.9761 36.201 35.9761 26.8971C35.9761 17.5933 43.5185 10.0508 52.8224 10.0508C62.1262 10.0508 69.6687 17.5933 69.6687 26.8971ZM77.4439 27.5451H74.8521C74.4942 27.5451 74.2042 27.2551 74.2042 26.8971C74.2042 26.5391 74.4942 26.2492 74.8521 26.2492H77.4439C77.8019 26.2492 78.0918 26.5391 78.0918 26.8971C78.0918 27.2551 77.8019 27.5451 77.4439 27.5451ZM50.2306 5.51529C49.8726 5.51529 49.5827 5.22534 49.5827 4.86736V2.27562C49.5827 1.91764 49.8726 1.62769 50.2306 1.62769C50.5886 1.62769 50.8786 1.91764 50.8786 2.27562V4.86736C50.8786 5.22534 50.5886 5.51529 50.2306 5.51529ZM68.3728 11.3467L70.9645 8.75497ZM68.3728 11.9946C68.2445 11.9949 68.119 11.957 68.0122 11.8858C67.9055 11.8146 67.8222 11.7134 67.7731 11.5948C67.724 11.4763 67.7111 11.3458 67.7362 11.22C67.7613 11.0941 67.8232 10.9786 67.9141 10.888L70.5058 8.29623C70.7588 8.04305 71.1703 8.04305 71.4233 8.29623C71.6763 8.54941 71.6765 8.96068 71.4233 9.2137L68.8315 11.8054C68.7712 11.8656 68.6997 11.9132 68.621 11.9457C68.5423 11.9781 68.4579 11.9948 68.3728 11.9946Z" fill="#FDD020"/>
<path d="M61.089 59.2938C65.9763 59.4116 70.543 56.871 73.0207 52.6575C75.4984 48.444 75.4986 43.2182 73.0207 39.0047C71.804 36.9354 70.0562 35.2289 67.9583 34.0621C65.8605 32.8953 63.4888 32.3106 61.089 32.3684C60.1754 32.3684 59.2642 32.4583 58.3677 32.6355C57.2458 27.4482 52.638 23.76 47.3312 23.8009C45.7085 23.8015 44.1046 24.1485 42.6267 24.8185C40.0248 18.1302 33.0632 14.2086 25.9949 15.4487C18.9259 16.6889 13.7151 22.7456 13.5448 29.9204C13.5487 31.5971 13.8462 33.2602 14.4239 34.8343C12.808 34.8437 11.2101 35.1733 9.72226 35.8038C8.23446 36.4344 6.88635 37.3535 5.75581 38.5081C4.62526 39.6626 3.7347 41.0298 3.13555 42.5305C2.5364 44.0312 2.24055 45.6358 2.26508 47.2515C2.28962 48.8672 2.63405 50.4621 3.27849 51.9439C3.92293 53.4258 4.8546 54.7652 6.01968 55.8849C7.18476 57.0046 8.56016 57.8824 10.0664 58.4675C11.5727 59.0526 13.1799 59.3335 14.7954 59.2938" fill="#D0DAD9"/>
<path d="M37.2721 41.1516H26.9052L21.7217 56.702H33.3845L29.7246 74.8442L45.0473 51.5186H34.6804L37.2721 41.1516Z" fill="#FFC107"/>
<path d="M55.4143 69.6608C55.4143 72.5234 53.0934 74.8443 50.2308 74.8443C47.3683 74.8443 45.0474 72.5234 45.0474 69.6608C45.0474 65.7732 50.2308 56.7021 50.2308 56.7021C50.2308 56.7021 55.4143 65.7732 55.4143 69.6608Z" fill="#60A2D7"/>
<path d="M77.4441 25.6012H74.8523C74.5086 25.6012 74.179 25.7378 73.936 25.9808C73.693 26.2238 73.5565 26.5534 73.5565 26.8971C73.5565 27.2408 73.693 27.5704 73.936 27.8134C74.179 28.0565 74.5086 28.193 74.8523 28.193H77.4441C77.7877 28.193 78.1174 28.0565 78.3604 27.8134C78.6034 27.5704 78.7399 27.2408 78.7399 26.8971C78.7399 26.5534 78.6034 26.2238 78.3604 25.9808C78.1174 25.7378 77.7877 25.6012 77.4441 25.6012ZM48.9349 2.27561V4.86734C48.9349 5.21103 49.0715 5.54064 49.3145 5.78366C49.5575 6.02668 49.8871 6.16321 50.2308 6.16321C50.5745 6.16321 50.9041 6.02668 51.1471 5.78366C51.3902 5.54064 51.5267 5.21103 51.5267 4.86734V2.27561C51.5267 1.93192 51.3902 1.60231 51.1471 1.35929C50.9041 1.11627 50.5745 0.979736 50.2308 0.979736C49.8871 0.979736 49.5575 1.11627 49.3145 1.35929C49.0715 1.60231 48.9349 1.93192 48.9349 2.27561ZM69.2892 12.2629L71.8809 9.67113C72.0047 9.55159 72.1034 9.4086 72.1713 9.2505C72.2392 9.0924 72.275 8.92235 72.2765 8.75029C72.278 8.57822 72.2452 8.40758 72.18 8.24833C72.1149 8.08907 72.0186 7.94438 71.897 7.82271C71.7753 7.70104 71.6306 7.60481 71.4713 7.53966C71.3121 7.4745 71.1414 7.44171 70.9694 7.44321C70.7973 7.4447 70.6273 7.48045 70.4692 7.54836C70.3111 7.61628 70.1681 7.715 70.0485 7.83877L67.4568 10.4305C67.333 10.55 67.2343 10.693 67.1664 10.8511C67.0985 11.0092 67.0627 11.1793 67.0612 11.3514C67.0597 11.5234 67.0925 11.6941 67.1577 11.8533C67.2228 12.0126 67.3191 12.1573 67.4407 12.2789C67.5624 12.4006 67.7071 12.4968 67.8664 12.562C68.0256 12.6271 68.1963 12.6599 68.3683 12.6584C68.5404 12.6569 68.7104 12.6212 68.8685 12.5533C69.0266 12.4854 69.1696 12.3866 69.2892 12.2629ZM0.987793 47.056C1.07316 54.6012 7.24878 60.6553 14.795 60.5897C15.5112 60.5897 16.0908 60.0095 16.0908 59.2938C16.0908 58.5782 15.5112 57.998 14.795 57.998C12.8621 58.0489 10.9503 57.5864 9.25449 56.6577C7.55863 55.729 6.13932 54.3673 5.14122 52.7113C4.14296 51.0554 3.60161 49.1644 3.57236 47.2311C3.54311 45.2978 4.027 43.3913 4.9747 41.706C5.92233 40.0205 7.29993 38.6165 8.96707 37.637C10.6342 36.6575 12.5313 36.1375 14.4648 36.1302C14.67 36.1244 14.8709 36.0699 15.0508 35.9712C15.2308 35.8725 15.3847 35.7325 15.4999 35.5626C15.6152 35.3929 15.6886 35.1982 15.714 34.9946C15.7393 34.791 15.7159 34.5843 15.6457 34.3915C15.1186 32.9595 14.847 31.4462 14.8432 29.9204C14.9438 22.44 21.0783 16.4511 28.5587 16.5302C31.8685 16.535 35.0679 17.7205 37.5817 19.8735C37.876 20.1324 38.1613 20.3919 38.4321 20.6651C38.5163 20.7506 38.6043 20.831 38.6916 20.9246C39.0226 21.2846 39.3343 21.6618 39.6254 22.0546C39.6962 22.146 39.765 22.2389 39.8318 22.3332C40.1198 22.74 40.3853 23.1622 40.6271 23.598C40.6726 23.6809 40.7138 23.765 40.7567 23.8479C41.0046 24.3129 41.2244 24.7923 41.4149 25.2836C41.4778 25.4489 41.5738 25.5997 41.6971 25.7265C41.8204 25.8534 41.9683 25.9538 42.1318 26.0214C42.2346 26.0552 42.3413 26.0756 42.4493 26.0822C42.5669 26.1183 42.6906 26.1302 42.8129 26.117C42.9352 26.1038 43.0535 26.0659 43.1607 26.0056C44.4701 25.4089 45.8922 25.0995 47.3311 25.0983C52.0198 25.0648 56.0928 28.3158 57.0988 32.8955C57.1645 33.2065 57.3433 33.482 57.6004 33.6687C57.8576 33.8555 58.1748 33.9403 58.4908 33.9066C58.5339 33.9092 58.5775 33.9092 58.6206 33.9066H58.6452C59.0223 33.834 59.4023 33.7781 59.7843 33.739C59.9835 33.72 60.1834 33.715 60.3828 33.703C60.5821 33.6917 60.7497 33.6795 60.9319 33.6771C61.1914 33.6771 61.4509 33.6859 61.7033 33.6991C61.8331 33.6991 61.9545 33.708 62.0791 33.7174C62.3772 33.7416 62.6746 33.7764 62.9707 33.8226L63.1897 33.855C63.5086 33.9079 63.825 33.9739 64.1381 34.0503L64.2863 34.0876C64.6057 34.1744 64.9229 34.27 65.2371 34.3743L65.3758 34.4237C65.6828 34.5338 65.9865 34.654 66.2832 34.7875L66.4501 34.8665C66.7363 34.9963 67.0203 35.1424 67.2963 35.2968C69.1816 36.3381 70.7553 37.863 71.8556 39.7145C72.9559 41.5659 73.543 43.6772 73.5565 45.8309C73.4648 52.6297 67.8883 58.072 61.0887 57.998C60.7451 57.998 60.4154 58.1345 60.1724 58.3775C59.9294 58.6205 59.7929 58.9502 59.7929 59.2938C59.7929 59.6375 59.9294 59.9671 60.1724 60.2102C60.4154 60.4532 60.7451 60.5897 61.0887 60.5897C69.319 60.6626 76.0552 54.0603 76.1482 45.8309C76.1391 43.4234 75.5378 41.0551 74.3972 38.9349C73.2567 36.8147 71.612 35.0077 69.6081 33.6732C70.4964 31.5242 70.9572 29.2225 70.9647 26.8971C70.9697 18.9168 65.7566 11.8712 58.1231 9.54332C50.4897 7.21562 42.2316 10.1527 37.7829 16.7775C35.0599 14.9325 31.8475 13.9438 28.5584 13.9384C19.6456 13.8587 12.3493 21.0074 12.2474 29.9204C12.2493 31.1875 12.4068 32.4496 12.7162 33.6784C6.01512 34.5829 1.00885 40.2936 0.987793 47.0557V47.056ZM39.8221 18.381C43.5869 12.6273 50.6839 10.0312 57.2721 11.9966C63.8609 13.9619 68.3756 20.0217 68.373 26.8971C68.3742 28.7853 68.0263 30.6575 67.3467 32.4191L67.2738 32.39C66.846 32.2001 66.4094 32.0307 65.9654 31.8825C65.911 31.8642 65.859 31.842 65.8047 31.8256C65.3431 31.6752 64.8743 31.5478 64.4 31.444L64.2703 31.4105C63.7988 31.3127 63.3232 31.2362 62.8448 31.1814C62.7928 31.1814 62.7421 31.1644 62.6909 31.1581C62.1603 31.1025 61.6272 31.0744 61.0938 31.0739C60.5036 31.0734 59.914 31.1075 59.3278 31.1759C58.8053 29.5974 57.9766 28.1375 56.8891 26.8798C55.8016 25.6221 54.4767 24.5912 52.9902 23.8462C51.5037 23.1011 49.8849 22.6566 48.2265 22.5379C46.568 22.4192 44.9024 22.6287 43.325 23.1545C43.1326 22.7565 42.9225 22.3674 42.6953 21.9882C42.6163 21.8586 42.5309 21.7295 42.448 21.5902C42.2962 21.3488 42.1384 21.1113 41.9747 20.8778C41.8663 20.7223 41.755 20.5689 41.6407 20.4178C41.491 20.2221 41.3363 20.0304 41.1767 19.8427C40.8455 19.4449 40.4961 19.0625 40.1297 18.6967C40.0827 18.6518 40.0385 18.6024 39.9923 18.5569C39.9453 18.5112 39.8807 18.4341 39.8221 18.381Z" fill="black"/>
<path d="M29.2373 76.0425C29.5157 76.1569 29.8253 76.1709 30.1129 76.082C30.4004 75.9932 30.6481 75.807 30.8134 75.5554L46.1355 52.2298C46.264 52.0341 46.3372 51.8071 46.3471 51.5731C46.357 51.3391 46.3034 51.1068 46.1918 50.9009C46.0801 50.695 45.9147 50.5233 45.7131 50.4038C45.5116 50.2844 45.2815 50.2218 45.0473 50.2227H36.34L38.5294 41.4653C38.5769 41.2743 38.5804 41.0749 38.5395 40.8823C38.4986 40.6897 38.4144 40.5089 38.2934 40.3537C38.172 40.1986 38.017 40.0732 37.8401 39.987C37.6631 39.9007 37.4689 39.8558 37.272 39.8557H26.9051C26.633 39.8557 26.3677 39.9413 26.1469 40.1004C25.9261 40.2595 25.761 40.4841 25.675 40.7423L20.4915 56.2927C20.4267 56.4875 20.4092 56.6949 20.4402 56.8979C20.4713 57.1008 20.5502 57.2935 20.6703 57.46C20.7904 57.6265 20.9483 57.7621 21.1311 57.8556C21.3139 57.9491 21.5163 57.9979 21.7216 57.9979H31.8007L28.4605 74.5847C28.4 74.8801 28.4445 75.1874 28.5863 75.4535C28.7281 75.7197 28.9584 75.928 29.2373 76.0425ZM23.5193 55.4061L27.8397 42.4475H35.615L33.423 51.2048C33.3754 51.3958 33.372 51.5952 33.4129 51.7878C33.4537 51.9804 33.5379 52.1612 33.659 52.3165C33.7803 52.4715 33.9353 52.5969 34.1123 52.6831C34.2892 52.7694 34.4835 52.8143 34.6803 52.8144H42.6447L32.3209 68.5333L34.6531 56.957C34.6909 56.7691 34.6865 56.5751 34.6402 56.3891C34.594 56.2031 34.507 56.0297 34.3855 55.8814C34.2641 55.7332 34.1114 55.6137 33.9383 55.5315C33.7652 55.4493 33.576 55.4065 33.3844 55.4061H23.5193ZM50.2307 76.14C53.8077 76.1357 56.7057 73.2376 56.7101 69.6607C56.7101 65.5479 51.9037 57.0184 51.3557 56.0541C51.1058 55.6763 50.6838 55.4486 50.2307 55.4486C49.7777 55.4486 49.3557 55.6763 49.1058 56.0541C48.5578 57.0184 43.7514 65.5479 43.7514 69.6607C43.7558 73.2376 46.6538 76.1357 50.2307 76.14ZM50.2307 59.4159C51.8664 62.548 54.1183 67.3694 54.1183 69.6607C54.1183 71.8076 52.3777 73.5483 50.2307 73.5483C48.0838 73.5483 46.3431 71.8076 46.3431 69.6607C46.3431 67.3694 48.595 62.548 50.2307 59.4159Z" fill="black"/>
</svg>
