<svg width="76" height="77" viewBox="0 0 76 77" fill="none" xmlns="http://www.w3.org/2000/svg">
<path d="M45.7025 10.2083C41.6411 10.2083 34.2509 12.1572 31.7136 17.382C31.4782 17.869 31.5093 18.4411 31.7954 18.9004C32.0814 19.3592 32.588 19.6389 33.1285 19.6389C41.3366 19.6389 48.7302 24.5333 51.9582 32.1065C52.2788 32.8577 53.1215 33.241 53.8916 32.9832C57.7551 31.726 60.8075 32.053 63.9135 33.3763C64.1115 33.4609 64.3222 33.5018 64.5294 33.5018C64.8154 33.5018 65.1015 33.4235 65.3531 33.2692C65.7899 33.0056 66.0668 32.5434 66.0979 32.034C66.472 26.3033 64.5294 20.8523 60.6222 16.6809C56.7714 12.5659 51.336 10.2083 45.7025 10.2083Z" fill="#FFC107"/>
<path d="M65.1527 30.4843C61.7198 29.0222 58.1799 28.5853 54.2663 29.6007C50.2803 21.5941 42.132 16.4954 33.129 16.4954C21.6204 16.4954 11.819 24.8416 9.90454 36.0734C4.09497 37.966 0.121582 43.3444 0.121582 49.5028C0.121582 57.3016 6.46819 63.6488 14.2676 63.6488H58.2777C67.8086 63.6488 75.5671 55.8903 75.5671 46.3588C75.5671 39.4683 71.4803 33.2408 65.1527 30.4843Z" fill="#D0DAD9"/>
<path d="M49.3433 41.7228L39.9126 38.5794C39.4533 38.428 38.9629 38.4913 38.5669 38.7458C38.168 39.0036 37.9038 39.425 37.8503 39.8964L36.5269 51.8039L32.2577 49.6667C31.8179 49.4497 31.3022 49.4434 30.8653 49.6604C30.425 49.8739 30.1107 50.2826 30.0134 50.7667L25.2981 74.3434C25.1501 75.0761 25.5433 75.8146 26.238 76.1036C26.436 76.1825 26.6404 76.2233 26.8413 76.2233C27.3541 76.2233 27.8503 75.9718 28.149 75.5222L36.8096 62.5297L41.8553 65.0543C42.2669 65.2586 42.7481 65.2713 43.1752 65.0952C43.6028 64.9127 43.9235 64.5512 44.0587 64.1143L50.346 43.681C50.6005 42.8636 50.1544 41.9933 49.3433 41.7228Z" fill="#FFC107"/>
<path d="M26.8411 76.2233C26.6402 76.2233 26.4359 76.1825 26.2408 76.1036C25.546 75.8146 25.1535 75.079 25.3008 74.3434L30.0162 50.7667C30.1106 50.286 30.4283 49.8774 30.8681 49.6604C31.3084 49.4434 31.8241 49.4497 32.261 49.6667L36.5297 51.8039L37.853 39.8964C37.9065 39.425 38.1707 39.0002 38.5702 38.7458C38.9662 38.4913 39.4566 38.428 39.9154 38.5794L49.3461 41.7228C50.1571 41.9933 50.6003 42.8608 50.3488 43.6781L44.062 64.1109C43.9268 64.5512 43.6027 64.9127 43.1785 65.0917C42.7508 65.2713 42.2702 65.2586 41.8581 65.0509L36.8129 62.5268L28.1524 75.5194C27.8502 75.9718 27.354 76.2233 26.8411 76.2233ZM32.6944 53.4012L29.9408 67.1697L34.9641 59.635C35.4073 58.9713 36.2689 58.7422 36.9764 59.1003L41.6036 61.4142L46.8975 44.2221L40.7673 42.1787L39.4094 54.3947C39.3496 54.9035 39.0508 55.3565 38.5984 55.6017C38.1391 55.847 37.6049 55.8533 37.1427 55.6265L32.6944 53.4012Z" fill="black"/>
<path d="M58.2777 63.6488H51.9904C51.123 63.6488 50.4184 62.9443 50.4184 62.0769C50.4184 61.2094 51.123 60.5049 51.9904 60.5049H58.2777C66.0766 60.5049 72.4238 54.1583 72.4238 46.3588C72.4238 38.56 66.0766 32.2128 58.2777 32.2128C56.9037 32.2128 55.467 32.4643 53.8893 32.9864C53.1128 33.2472 52.2701 32.8575 51.9524 32.1063C48.74 24.5331 41.3527 19.6387 33.129 19.6387C22.8591 19.6387 14.1513 27.3213 12.8752 37.5101C12.7964 38.1605 12.3186 38.6889 11.6837 38.8426C6.72951 40.0404 3.26495 44.426 3.26495 49.5028C3.26495 55.5696 8.20076 60.5049 14.2676 60.5049H20.5549C21.4224 60.5049 22.1263 61.2094 22.1263 62.0769C22.1263 62.9443 21.4224 63.6488 20.5549 63.6488H14.2676C6.46819 63.6488 0.121582 57.3016 0.121582 49.5028C0.121582 43.3289 4.09498 37.9533 9.90742 36.0763C11.8282 24.8416 21.6296 16.4954 33.129 16.4954C42.1481 16.4954 50.2929 21.5941 54.26 29.6007C55.6524 29.2456 56.9791 29.0694 58.2777 29.0694C67.8086 29.0694 75.5671 36.8245 75.5671 46.3588C75.5671 55.8903 67.8086 63.6488 58.2777 63.6488Z" fill="black"/>
<path d="M64.5636 32.213C63.6962 32.213 62.9922 31.509 62.9922 30.6416C62.9922 21.1067 55.2336 13.3516 45.7022 13.3516C42.1219 13.3516 36.2531 15.2287 34.543 18.7525C34.1625 19.5353 33.2254 19.8588 32.4426 19.4784C31.6603 19.1013 31.3363 18.1614 31.7133 17.382C34.2471 12.1572 41.6379 10.2083 45.7022 10.2083C56.9691 10.2083 66.1356 19.3747 66.1356 30.6416C66.1356 31.509 65.4316 32.213 64.5636 32.213Z" fill="black"/>
<path d="M45.7027 7.06491C44.8353 7.06491 44.1313 6.36037 44.1313 5.49293V2.34956C44.1313 1.48155 44.8353 0.777588 45.7027 0.777588C46.5708 0.777588 47.2747 1.48155 47.2747 2.34956V5.49293C47.2747 6.36037 46.5708 7.06491 45.7027 7.06491Z" fill="black"/>
<path d="M27.9199 14.4301C27.5176 14.4301 27.1146 14.2758 26.8067 13.9707L24.5843 11.7483C23.9713 11.1353 23.9713 10.1389 24.5843 9.52593C25.1973 8.91291 26.1937 8.91291 26.8067 9.52593L29.0291 11.7483C29.6421 12.3614 29.6421 13.3577 29.0291 13.9707C28.7246 14.2758 28.3222 14.4301 27.9199 14.4301Z" fill="black"/>
<path d="M73.9946 32.2132H70.8513C69.9838 32.2132 69.2793 31.5092 69.2793 30.6418C69.2793 29.7738 69.9838 29.0698 70.8513 29.0698H73.9946C74.8627 29.0698 75.5666 29.7738 75.5666 30.6418C75.5666 31.5092 74.8627 32.2132 73.9946 32.2132Z" fill="black"/>
<path d="M63.4855 14.4301C63.0831 14.4301 62.6808 14.2758 62.3728 13.9707C61.7598 13.3577 61.7598 12.3614 62.3728 11.7483L64.5953 9.52593C65.2083 8.91291 66.2046 8.91291 66.8177 9.52593C67.4307 10.1389 67.4307 11.1353 66.8177 11.7483L64.5953 13.9707C64.2902 14.2758 63.8878 14.4301 63.4855 14.4301Z" fill="black"/>
</svg>
