<svg width="76" height="76" viewBox="0 0 76 76" fill="none" xmlns="http://www.w3.org/2000/svg">
<path d="M37.5588 62.2938C51.0826 62.2938 62.0458 51.3306 62.0458 37.8068C62.0458 24.283 51.0826 13.3198 37.5588 13.3198C24.035 13.3198 13.0718 24.283 13.0718 37.8068C13.0718 51.3306 24.035 62.2938 37.5588 62.2938Z" fill="#FFC107"/>
<path d="M37.5583 10.0551C38.4599 10.0551 39.1908 9.32412 39.1908 8.42254V1.89277C39.1908 0.991191 38.4599 0.260254 37.5583 0.260254C36.6567 0.260254 35.9258 0.991191 35.9258 1.89277V8.42269C35.9259 9.32412 36.6567 10.0551 37.5583 10.0551Z" fill="#FFD54F"/>
<path d="M37.5583 65.5591C36.6567 65.5591 35.9258 66.29 35.9258 67.1916V73.7214C35.9258 74.6229 36.6567 75.3539 37.5583 75.3539C38.4599 75.3539 39.1908 74.6229 39.1908 73.7214V67.1914C39.1908 66.2899 38.4599 65.5591 37.5583 65.5591Z" fill="#FFD54F"/>
<path d="M73.4725 36.1748H66.9426C66.041 36.1748 65.3101 36.9057 65.3101 37.8073C65.3101 38.7089 66.041 39.4398 66.9426 39.4398H73.4725C74.3741 39.4398 75.105 38.7089 75.105 37.8073C75.105 36.9056 74.3741 36.1748 73.4725 36.1748Z" fill="#FFD54F"/>
<path d="M9.80652 37.8071C9.80652 36.9055 9.07558 36.1746 8.174 36.1746H1.64424C0.742656 36.1747 0.0117188 36.9055 0.0117188 37.8071C0.0117188 38.7087 0.742656 39.4396 1.64424 39.4396H8.17415C9.07558 39.4396 9.80652 38.7087 9.80652 37.8071Z" fill="#FFD54F"/>
<path d="M21.4527 13.1763C21.7449 13.6824 22.2853 13.9937 22.8697 13.9925C23.1564 13.9935 23.4383 13.9181 23.6859 13.7738C24.4668 13.3229 24.7341 12.3246 24.2834 11.5438L21.0185 5.88895C20.5626 5.11118 19.5625 4.85024 18.7847 5.30616C18.0141 5.75779 17.7497 6.74492 18.1912 7.52132L21.4527 13.1763Z" fill="#FFD54F"/>
<path d="M53.6645 62.4376C53.2084 61.6599 52.2083 61.3991 51.4305 61.8551C50.6602 62.3069 50.3958 63.2937 50.837 64.0701L54.1019 69.725C54.394 70.2311 54.9344 70.5424 55.5189 70.5411C55.8056 70.5422 56.0875 70.4668 56.3351 70.3224C57.1159 69.8716 57.3833 68.8733 56.9326 68.0924L53.6645 62.4376Z" fill="#FFD54F"/>
<path d="M63.0049 24.7472C63.2915 24.7483 63.5734 24.6728 63.821 24.5285L69.4758 21.2636C70.2747 20.8457 70.5836 19.8593 70.1656 19.0604C69.7477 18.2615 68.7613 17.9527 67.9624 18.3707C67.9217 18.3919 67.882 18.4149 67.8433 18.4395L62.1885 21.7044C61.4077 22.1553 61.1403 23.1537 61.591 23.9344C61.8826 24.4395 62.4214 24.7506 63.0047 24.7506V24.7472H63.0049Z" fill="#FFD54F"/>
<path d="M11.2955 51.0856L5.64067 54.3505C4.85984 54.8013 4.59247 55.7996 5.04318 56.5805C5.33473 57.0855 5.8736 57.3966 6.45685 57.3966C6.7435 57.3977 7.02541 57.3223 7.27303 57.1779L12.9278 53.9131C13.7267 53.4951 14.0356 52.5087 13.6176 51.7098C13.1996 50.911 12.2133 50.6021 11.4144 51.0201C11.3737 51.0413 11.334 51.0643 11.2953 51.0889L11.2955 51.0856Z" fill="#FFD54F"/>
<path d="M5.64047 21.2634L11.2953 24.5283C11.5421 24.672 11.8227 24.7476 12.1083 24.7469C13.0098 24.7469 13.7406 24.016 13.7406 23.1144C13.7406 22.5313 13.4295 21.9925 12.9244 21.7008L7.26962 18.4359C6.50869 17.9523 5.49983 18.1769 5.01621 18.9377C4.53259 19.6985 4.75726 20.7075 5.51804 21.1911C5.55676 21.2158 5.5964 21.2387 5.63711 21.26L5.64047 21.2634Z" fill="#FFD54F"/>
<path d="M69.4767 54.3504L63.8219 51.0855C63.0609 50.6019 62.0521 50.8266 61.5685 51.5874C61.0848 52.3482 61.3095 53.3572 62.0703 53.8408C62.109 53.8654 62.1488 53.8884 62.1894 53.9097L67.8442 57.1745C68.0919 57.3189 68.3737 57.3943 68.6603 57.3932C69.5619 57.3932 70.2927 56.6623 70.2927 55.7607C70.2927 55.1775 69.9816 54.6386 69.4765 54.3471V54.3504H69.4767Z" fill="#FFD54F"/>
<path d="M51.4342 13.7734C51.6819 13.9178 51.9637 13.9932 52.2504 13.9921C52.8347 13.9934 53.3751 13.6819 53.6674 13.176L56.9323 7.52115C57.3778 6.73741 57.1035 5.74079 56.3198 5.29528C55.5434 4.85405 54.5566 5.11836 54.1048 5.88878L50.8399 11.5436C50.3886 12.3234 50.6546 13.3215 51.4342 13.7734Z" fill="#FFD54F"/>
<path d="M23.6821 61.8401C22.9013 61.3893 21.903 61.6567 21.4521 62.4375L18.1872 68.0924C17.7365 68.8732 18.0039 69.8715 18.7847 70.3223C19.0325 70.4667 19.3142 70.5421 19.6009 70.5411C20.1852 70.5423 20.7258 70.2308 21.0179 69.7249L24.2828 64.0701C24.7328 63.2888 24.4643 62.2906 23.683 61.8407C23.6827 61.8404 23.6824 61.8402 23.6821 61.8401Z" fill="#FFD54F"/>
<path d="M37.5588 62.2938C24.0349 62.2938 13.0718 51.3307 13.0718 37.8068C13.0718 24.283 24.0349 13.3198 37.5588 13.3198C51.0826 13.3198 62.0458 24.283 62.0458 37.8068C62.0314 51.3247 51.0767 62.2794 37.5588 62.2938ZM37.5588 16.5849C25.8382 16.5849 16.3367 26.0863 16.3367 37.807C16.3367 49.5277 25.8382 59.0289 37.5588 59.0289C49.2793 59.0289 58.7809 49.5275 58.7809 37.8068C58.7665 26.0922 49.2735 16.5992 37.5588 16.5849Z" fill="black"/>
<path d="M37.5583 10.0551C36.6567 10.0551 35.9258 9.32412 35.9258 8.42254V1.89277C35.9259 0.991191 36.6567 0.260254 37.5583 0.260254C38.4599 0.260254 39.1908 0.991191 39.1908 1.89277V8.42269C39.1908 9.32412 38.4599 10.0551 37.5583 10.0551Z" fill="black"/>
<path d="M37.5583 75.3538C36.6567 75.3538 35.9258 74.6229 35.9258 73.7213V67.1914C35.9258 66.2898 36.6567 65.5588 37.5583 65.5588C38.4599 65.5588 39.1908 66.2898 39.1908 67.1914V73.7213C39.1908 74.6229 38.4599 75.3538 37.5583 75.3538Z" fill="black"/>
<path d="M73.4725 39.4396H66.9426C66.041 39.4396 65.3101 38.7087 65.3101 37.8071C65.3101 36.9055 66.041 36.1746 66.9426 36.1746H73.4725C74.3741 36.1746 75.105 36.9055 75.105 37.8071C75.105 38.7087 74.3741 39.4396 73.4725 39.4396Z" fill="black"/>
<path d="M8.174 39.4396H1.64424C0.742656 39.4396 0.0117188 38.7087 0.0117188 37.8071C0.0117188 36.9055 0.742656 36.1746 1.64424 36.1746H8.17415C9.07573 36.1746 9.80667 36.9055 9.80667 37.8071C9.80652 38.7087 9.07558 39.4396 8.174 39.4396Z" fill="black"/>
<path d="M22.8663 13.9927C22.2831 13.9927 21.7442 13.6816 21.4527 13.1765L18.1878 7.52171C17.7698 6.72282 18.0787 5.73646 18.8776 5.31849C19.6293 4.92532 20.5568 5.17325 21.0119 5.88919L24.2768 11.544C24.7277 12.3248 24.4601 13.3231 23.6793 13.774C23.4312 13.9173 23.1496 13.9927 22.8631 13.9927H22.8663Z" fill="black"/>
<path d="M55.5156 70.5414C54.9323 70.5414 54.3934 70.2303 54.1019 69.7252L50.837 64.0704C50.3534 63.3095 50.5781 62.3006 51.3388 61.817C52.0996 61.3334 53.1086 61.558 53.5923 62.3188C53.6169 62.3575 53.6399 62.3973 53.6611 62.4379L56.926 68.0927C57.3769 68.8735 57.1094 69.8718 56.3285 70.3227C56.0804 70.4659 55.7988 70.5414 55.5123 70.5414H55.5156Z" fill="black"/>
<path d="M63.0049 24.7472C62.1033 24.7472 61.3726 24.0163 61.3726 23.1147C61.3726 22.5316 61.6837 21.9927 62.1887 21.701L67.8436 18.4361C68.6045 17.9525 69.6134 18.1772 70.097 18.938C70.5806 19.6987 70.3559 20.7078 69.5951 21.1914C69.5564 21.216 69.5166 21.239 69.4761 21.2602L63.8213 24.5251C63.5733 24.6696 63.2919 24.7461 63.0049 24.7472Z" fill="black"/>
<path d="M6.45658 57.3966C5.555 57.3966 4.82422 56.6656 4.82422 55.764C4.82422 55.1808 5.13536 54.6419 5.6404 54.3504L11.2952 51.0855C12.0941 50.6675 13.0805 50.9764 13.4984 51.7753C13.8916 52.5269 13.6437 53.4545 12.9277 53.9096L7.27292 57.1745C7.02499 57.319 6.74339 57.3956 6.45658 57.3966Z" fill="black"/>
<path d="M12.1117 24.7471C11.8252 24.7471 11.5436 24.6717 11.2955 24.5284L5.6407 21.2635C4.87977 20.7799 4.6551 19.7709 5.13887 19.0101C5.59402 18.2942 6.52162 18.0461 7.27322 18.4394L12.928 21.7043C13.707 22.1582 13.9706 23.1577 13.5166 23.9367C13.2251 24.4367 12.6907 24.7451 12.1117 24.7471Z" fill="black"/>
<path d="M68.6606 57.3966C68.3741 57.3966 68.0925 57.3212 67.8444 57.1779L62.1896 53.9131C61.3907 53.4951 61.0818 52.5087 61.4998 51.7098C61.9178 50.911 62.9041 50.6021 63.703 51.0201C63.7437 51.0413 63.7834 51.0643 63.8221 51.0889L69.4769 54.3538C70.2577 54.8047 70.5251 55.803 70.0744 56.5838C69.7828 57.0889 69.244 57.4 68.6607 57.4V57.3966H68.6606Z" fill="black"/>
<path d="M52.2505 13.9927C51.349 13.9927 50.618 13.2618 50.6182 12.3602C50.6182 12.0737 50.6936 11.7921 50.8369 11.544L54.1017 5.88924C54.5854 5.1283 55.5944 4.90364 56.3552 5.38741C57.0711 5.84256 57.319 6.77 56.9259 7.52175L53.661 13.1766C53.37 13.6805 52.8326 13.9915 52.2505 13.9927Z" fill="black"/>
<path d="M19.6011 70.5414C18.6995 70.5414 17.9686 69.8104 17.9688 68.9089C17.9688 68.6224 18.0442 68.3408 18.1874 68.0927L21.4523 62.4379C21.8703 61.639 22.8567 61.3301 23.6555 61.7481C24.4544 62.1661 24.7633 63.1524 24.3453 63.9513C24.324 63.992 24.3011 64.0317 24.2764 64.0704L21.0116 69.7252C20.7205 70.2293 20.1831 70.5403 19.6011 70.5414Z" fill="black"/>
</svg>
