<svg width="76" height="75" viewBox="0 0 76 75" fill="none" xmlns="http://www.w3.org/2000/svg">
<path d="M64.1276 29.931C64.1276 40.2096 55.7948 48.5424 45.5162 48.5424C35.2375 48.5424 26.9048 40.2096 26.9048 29.931C26.9048 19.6523 35.2375 11.3196 45.5162 11.3196C55.7948 11.3196 64.1276 19.6523 64.1276 29.931Z" fill="#FDD020"/>
<path d="M45.5161 7.59714C44.8309 7.59714 44.2754 7.04159 44.2754 6.35638V1.39335C44.2754 0.708143 44.8309 0.152588 45.5161 0.152588C46.2014 0.152588 46.7569 0.708143 46.7569 1.39335V6.35638C46.7569 7.04159 46.2014 7.59714 45.5161 7.59714Z" fill="#FDD020"/>
<path d="M74.0529 31.1717H69.0899C68.4047 31.1717 67.8491 30.6161 67.8491 29.9309C67.8491 29.2457 68.4047 28.6902 69.0899 28.6902H74.0529C74.7381 28.6902 75.2937 29.2457 75.2937 29.9309C75.2937 30.6161 74.7381 31.1717 74.0529 31.1717Z" fill="#FDD020"/>
<path d="M60.4051 46.0606C59.4975 46.0606 58.5924 46.1515 57.7024 46.3308C57.0318 42.9836 54.8635 40.1282 51.8197 38.5828C48.7754 37.0373 45.1906 36.9724 42.0924 38.4065C39.2886 30.6832 30.7547 26.6956 23.0315 29.4994C15.3082 32.3038 11.3206 40.8377 14.1244 48.5609C7.35899 48.7748 2.01488 54.374 2.11666 61.1424C2.21784 67.9102 7.72795 73.3464 14.497 73.3573H60.4051C67.9429 73.3573 74.0534 67.2468 74.0534 59.709C74.0534 52.1711 67.9429 46.0606 60.4051 46.0606Z" fill="#A3D4F7"/>
<path d="M28.1452 12.56L23.1821 7.59692Z" fill="#FDD020"/>
<path d="M28.1456 13.8008C27.8166 13.8008 27.501 13.6699 27.2683 13.4373L22.3053 8.47426C21.9824 8.16286 21.8533 7.70121 21.9666 7.26743C22.0805 6.83365 22.4192 6.49498 22.853 6.38169C23.2868 6.26779 23.7484 6.39744 24.0598 6.71975L29.0228 11.6828C29.3773 12.0378 29.4833 12.5716 29.2912 13.035C29.0998 13.4985 28.6472 13.8008 28.1456 13.8008Z" fill="#FDD020"/>
<path d="M62.8872 12.56L67.8502 7.59692Z" fill="#FDD020"/>
<path d="M62.8868 13.8008C62.3851 13.8008 61.9326 13.4985 61.7405 13.035C61.5485 12.5716 61.6545 12.0378 62.0095 11.6828L66.9725 6.71975C67.2839 6.39744 67.745 6.26779 68.1794 6.38169C68.6132 6.49498 68.9518 6.83365 69.0651 7.26743C69.179 7.70121 69.0494 8.16286 68.7271 8.47426L63.764 13.4373C63.5314 13.6699 63.2157 13.8008 62.8868 13.8008Z" fill="#FDD020"/>
<path d="M46.7569 6.35638V1.39335C46.7569 0.708143 46.2014 0.152588 45.5161 0.152588C44.8309 0.152588 44.2754 0.708143 44.2754 1.39335V6.35638C44.2754 7.04159 44.8309 7.59714 45.5161 7.59714C46.2014 7.59714 46.7569 7.04159 46.7569 6.35638Z" fill="black"/>
<path d="M74.0529 28.6902H69.0899C68.4047 28.6902 67.8491 29.2457 67.8491 29.9309C67.8491 30.6161 68.4047 31.1717 69.0899 31.1717H74.0529C74.7381 31.1717 75.2937 30.6161 75.2937 29.9309C75.2937 29.2457 74.7381 28.6902 74.0529 28.6902Z" fill="black"/>
<path d="M60.4049 44.8201C59.8105 44.8201 59.2168 44.8559 58.6267 44.9267C58.6158 44.8898 58.5994 44.8546 58.5879 44.8177C65.2504 38.9865 67.2381 29.4451 63.4583 21.439C59.6784 13.4334 51.0483 8.90413 42.3127 10.3424C33.5765 11.7813 26.8541 18.8381 25.8411 27.6331C17.9143 28.7817 12.0292 35.5696 12.0152 43.5794C12.0158 44.8874 12.1788 46.1899 12.4987 47.4579C5.45521 48.5327 0.423103 54.8455 0.946548 61.952C1.46939 69.0585 7.37148 74.5662 14.4968 74.5983H60.4049C68.6279 74.5983 75.294 67.9323 75.294 59.7092C75.294 51.4862 68.6279 44.8201 60.4049 44.8201ZM45.5157 12.5604C52.601 12.5567 58.9775 16.8594 61.6262 23.4303C64.2756 30.0019 62.6658 37.524 57.5598 42.4355C57.5362 42.3955 57.5065 42.3598 57.4841 42.3198C57.2714 41.9569 57.0424 41.6055 56.7965 41.2669C56.6723 41.0942 56.5408 40.9288 56.4081 40.764C56.2754 40.5992 56.1313 40.435 55.9877 40.2751C55.6957 39.948 55.3861 39.6372 55.0607 39.3433C54.9838 39.2724 54.9069 39.2034 54.8287 39.1349C54.1429 38.5436 53.3941 38.0305 52.5956 37.604C52.4847 37.5446 52.372 37.4925 52.2606 37.4361C51.8837 37.2508 51.4978 37.0854 51.104 36.94C50.8798 36.8576 50.652 36.7782 50.4206 36.7031C50.2328 36.6461 50.048 36.5862 49.8572 36.5383C49.4416 36.4311 49.0205 36.3462 48.5964 36.2826C48.4722 36.2651 48.348 36.2517 48.2244 36.2378C46.3851 36.0003 44.5155 36.1948 42.7646 36.8061C42.5992 36.4553 42.4247 36.1124 42.2412 35.7774C42.1594 35.6295 42.0661 35.4896 41.9807 35.3454C41.8704 35.1618 41.765 34.9734 41.6481 34.7959C41.5317 34.6184 41.4287 34.4833 41.3179 34.327C41.2076 34.1707 41.1058 34.0156 40.9931 33.8653C40.8799 33.7151 40.7448 33.5576 40.6206 33.4037C40.497 33.2498 40.3976 33.1207 40.2795 32.9856C40.1619 32.8505 40.0129 32.7015 39.8802 32.5591C39.7475 32.4162 39.6318 32.2895 39.5076 32.1617C39.384 32.0339 39.2223 31.8951 39.0799 31.7637C38.9369 31.6322 38.817 31.5153 38.6788 31.3911C38.5413 31.2675 38.3789 31.1433 38.2275 31.0252C38.076 30.9076 37.9458 30.7931 37.8004 30.6841C37.6556 30.575 37.4865 30.4635 37.329 30.3539C37.1715 30.2448 37.0297 30.1394 36.8765 30.0401C36.7226 29.9407 36.5487 29.8419 36.3797 29.7438C36.2113 29.6457 36.0659 29.5499 35.9047 29.4609C35.7435 29.3712 35.5672 29.2882 35.3982 29.2028C35.2298 29.1174 35.0674 29.0289 34.902 28.9544C34.7372 28.8799 34.5561 28.8054 34.3822 28.7327C34.2084 28.6593 34.0375 28.5824 33.8612 28.5152C33.6849 28.4485 33.5062 28.391 33.3275 28.3292C33.1487 28.2674 32.97 28.205 32.7877 28.1468C32.6053 28.0886 32.4296 28.0499 32.2509 28.0014C32.0722 27.9529 31.8783 27.8984 31.685 27.8554C31.4912 27.8118 31.3239 27.7833 31.1416 27.7488C30.9592 27.7136 30.7557 27.6718 30.5606 27.6415C30.3661 27.6119 30.1886 27.5961 30.005 27.5737C29.8215 27.5513 29.6143 27.5252 29.4156 27.5089C29.2168 27.4931 29.0436 27.4895 28.8545 27.4816C28.6782 27.4683 28.5171 27.4495 28.3432 27.4495C29.5834 18.915 36.8916 12.5785 45.5157 12.5604ZM60.4049 72.1168H14.4968C8.37959 72.1435 3.38142 67.2404 3.28994 61.1239C3.19906 55.0073 8.04881 49.9576 14.1642 49.8019C14.561 49.7904 14.9287 49.5899 15.1529 49.2621C15.3776 48.935 15.4316 48.5194 15.2983 48.1456C13.863 44.1519 14.3744 39.7165 16.6808 36.1542C18.9872 32.5919 22.824 30.3103 27.0558 29.9855C27.4157 29.9571 27.7749 29.9298 28.1415 29.9298C33.8388 29.9528 38.9278 33.4994 40.9211 38.8375C41.0416 39.161 41.2912 39.4203 41.6105 39.5517C41.9298 39.6838 42.2896 39.6765 42.6035 39.5317C43.9048 38.9277 45.3219 38.6157 46.7565 38.6163C47.2048 38.6206 47.6525 38.6539 48.0966 38.7169C48.1881 38.729 48.2826 38.7393 48.3753 38.7538C48.7564 38.8181 49.1338 38.9041 49.5046 39.0119C49.6585 39.0568 49.8099 39.1052 49.9614 39.1573C50.2528 39.2555 50.5369 39.3682 50.8162 39.4936C51.0343 39.5917 51.2464 39.6996 51.4554 39.8122C51.6117 39.8952 51.7626 39.9849 51.9128 40.0764C52.2084 40.2575 52.4944 40.4532 52.7689 40.6635C52.9046 40.7664 53.0397 40.8706 53.1687 40.9809C53.3347 41.1215 53.4989 41.2626 53.6552 41.4141C53.889 41.6407 54.1114 41.8794 54.321 42.129C54.4282 42.2532 54.5282 42.3768 54.6288 42.5137C54.8638 42.8172 55.0807 43.1341 55.2788 43.4624C55.3213 43.5333 55.3588 43.6066 55.403 43.6775C55.6278 44.0725 55.8265 44.4821 55.9962 44.9031C56.2112 45.4429 56.3772 46.0015 56.4923 46.571C56.628 47.2429 57.2824 47.6779 57.9542 47.5422C58.7612 47.3822 59.5821 47.3016 60.4049 47.3016C67.2575 47.3016 72.8124 52.8566 72.8124 59.7092C72.8124 66.5619 67.2575 72.1168 60.4049 72.1168Z" fill="black"/>
<path d="M28.1456 13.8008C28.6472 13.8008 29.0998 13.4985 29.2912 13.035C29.4833 12.5716 29.3773 12.0378 29.0228 11.6828L24.0598 6.71975C23.7484 6.39744 23.2868 6.26779 22.853 6.38169C22.4192 6.49498 22.0805 6.83365 21.9666 7.26743C21.8533 7.70121 21.9824 8.16286 22.3053 8.47426L27.2683 13.4373C27.501 13.6699 27.8166 13.8008 28.1456 13.8008Z" fill="black"/>
<path d="M63.7639 13.4373L68.7269 8.47426C69.0493 8.16286 69.1789 7.70121 69.065 7.26743C68.9517 6.83365 68.6131 6.49498 68.1793 6.38169C67.7449 6.26779 67.2838 6.39744 66.9724 6.71975L62.0094 11.6828C61.6865 11.9942 61.5574 12.4558 61.6707 12.8896C61.7846 13.3234 62.1233 13.6621 62.5571 13.7754C62.9909 13.8893 63.4525 13.7596 63.7639 13.4373Z" fill="black"/>
</svg>
