<svg width="95" height="76" viewBox="0 0 95 76" fill="none" xmlns="http://www.w3.org/2000/svg">
<path d="M74.2523 58.1065H75.8167C82.3752 58.1071 88.3638 54.3794 91.2589 48.4949C94.1545 42.6101 93.4525 35.5912 89.4491 30.3956C85.4459 25.2005 78.8378 22.7326 72.4093 24.0319C71.9918 21.9488 71.1074 19.9874 69.8227 18.2953C68.5379 16.6032 66.8862 15.2244 64.9918 14.2626C63.0974 13.3008 61.0095 12.7811 58.8853 12.7425C56.7611 12.7039 54.6557 13.1475 52.7276 14.0398C49.1928 4.30319 38.4333 -0.725262 28.6957 2.81059C18.9581 6.34566 13.9305 17.1053 17.4655 26.8429C8.93565 27.1126 2.19774 34.172 2.32602 42.7056C2.45371 51.2386 9.40085 58.0934 17.9352 58.1063" fill="#D0DAD9"/>
<path d="M67.995 64.3639C67.995 67.8202 65.1932 70.6214 61.7376 70.6214C58.2813 70.6214 55.4801 67.8202 55.4801 64.3639C55.4801 59.6708 61.7376 48.7203 61.7376 48.7203C61.7376 48.7203 67.995 59.6708 67.995 64.3639ZM52.3514 48.7203C52.3514 52.1765 49.5496 54.9777 46.0939 54.9777C42.6377 54.9777 39.8365 52.1765 39.8365 48.7203C39.8365 44.0272 46.0939 33.0767 46.0939 33.0767C46.0939 33.0767 52.3514 44.0272 52.3514 48.7203ZM36.7078 67.4926C36.7078 70.9489 33.906 73.7501 30.4503 73.7501C26.9941 73.7501 24.1929 70.9489 24.1929 67.4926C24.1929 62.7995 30.4503 51.849 30.4503 51.849C30.4503 51.849 36.7078 62.7995 36.7078 67.4926Z" fill="#60A2D7"/>
<path d="M75.8164 22.1261C75.0671 22.1267 74.3186 22.1719 73.5747 22.2611C71.5557 15.6845 65.4877 11.1901 58.6085 11.1756C56.8963 11.1741 55.1959 11.458 53.5771 12.0157C49.5707 3.35319 40.076 -1.35554 30.7556 0.699642C21.4343 2.75385 14.7995 11.0172 14.8063 20.5614C14.8074 22.2103 15.0122 23.8528 15.416 25.4516C6.53552 26.8075 0.190859 34.7668 0.850825 43.7259C1.51001 52.6858 8.95149 59.6308 17.935 59.6706C18.3499 59.6706 18.7478 59.5058 19.0412 59.2124C19.3346 58.9191 19.4994 58.5212 19.4994 58.1063C19.4994 57.6914 19.3346 57.2935 19.0412 57.0001C18.7478 56.7067 18.3499 56.5419 17.935 56.5419C10.2227 56.5746 3.92225 50.3928 3.80767 42.6811C3.69308 34.9699 9.80778 28.6032 17.5173 28.407C17.7638 28.3996 18.005 28.3339 18.2212 28.2155C18.4374 28.0971 18.6226 27.9292 18.7616 27.7256C18.9008 27.5221 18.9899 27.2885 19.0216 27.044C19.0534 26.7995 19.0269 26.5509 18.9442 26.3186C15.7911 17.419 20.4069 7.6417 29.2814 4.41989C38.1566 1.19789 47.9688 5.73669 51.2603 14.5859C51.3353 14.7881 51.4512 14.9725 51.6009 15.1278C51.7506 15.283 51.9308 15.4055 52.1301 15.4878C52.3294 15.5701 52.5436 15.6102 52.7592 15.6058C52.9748 15.6013 53.1871 15.5524 53.3829 15.4619C55.0198 14.7006 56.8031 14.3054 58.6085 14.3039C64.5605 14.3147 69.6859 18.5076 70.8744 24.3393C70.9149 24.5408 70.9947 24.7324 71.1092 24.9031C71.2238 25.0738 71.3709 25.2202 71.5421 25.334C71.7132 25.4478 71.9052 25.5267 72.1069 25.5663C72.3086 25.6059 72.5161 25.6053 72.7176 25.5646C78.5611 24.3837 84.5679 26.628 88.2068 31.35C91.8451 36.073 92.4837 42.4535 89.8523 47.8026C87.2216 53.1527 81.7782 56.5417 75.8164 56.5417H74.2521C73.8372 56.5417 73.4393 56.7065 73.1459 56.9999C72.8525 57.2933 72.6877 57.6912 72.6877 58.1061C72.6877 58.521 72.8525 58.9189 73.1459 59.2123C73.4393 59.5056 73.8372 59.6704 74.2521 59.6704H75.8164C86.1843 59.6704 94.5888 51.2659 94.5888 40.8981C94.5888 30.5303 86.1843 22.1257 75.8164 22.1257V22.1261Z" fill="black"/>
<path d="M61.737 72.1858C66.0544 72.1811 69.5535 68.682 69.5588 64.364C69.5588 59.3989 63.7568 49.1023 63.0945 47.9382C62.9462 47.7136 62.7446 47.5293 62.5076 47.4018C62.2707 47.2743 62.0058 47.2076 61.7367 47.2076C61.4676 47.2076 61.2027 47.2743 60.9658 47.4018C60.7288 47.5293 60.5272 47.7136 60.3789 47.9382C59.7174 49.1023 53.9152 59.3989 53.9152 64.364C53.9207 68.682 57.419 72.1811 61.737 72.1858ZM61.737 51.9964C63.7108 55.7774 66.4301 61.5988 66.4301 64.364C66.4301 66.9564 64.3288 69.0571 61.737 69.0571C59.1454 69.0571 57.0439 66.9564 57.0439 64.364C57.0439 61.5988 59.7626 55.7776 61.737 51.9964ZM44.7353 32.2946C44.0738 33.4587 38.2716 43.7553 38.2716 48.7204C38.2716 53.0406 41.7732 56.5422 46.0934 56.5422C50.413 56.5422 53.9152 53.0406 53.9152 48.7204C53.9152 43.7553 48.1132 33.4587 47.4508 32.2946C47.3026 32.07 47.101 31.8857 46.864 31.7582C46.627 31.6307 46.3622 31.564 46.0931 31.564C45.824 31.564 45.5591 31.6307 45.3221 31.7582C45.0852 31.8857 44.8836 32.07 44.7353 32.2946ZM46.0934 53.4135C43.5018 53.4135 41.4003 51.3127 41.4003 48.7204C41.4003 45.9552 44.1189 40.134 46.0934 36.3527C48.0672 40.1338 50.7865 45.9552 50.7865 48.7202C50.7865 51.3127 48.6851 53.4135 46.0934 53.4135ZM38.2716 67.4927C38.2716 62.5276 32.4695 52.231 31.8072 51.0669C31.659 50.8424 31.4573 50.6581 31.2204 50.5306C30.9834 50.4031 30.7185 50.3363 30.4494 50.3363C30.1804 50.3363 29.9155 50.4031 29.6785 50.5306C29.4416 50.6581 29.2399 50.8424 29.0917 51.0669C28.4302 52.231 22.6279 62.5276 22.6279 67.4927C22.6279 71.8129 26.1296 75.3145 30.4497 75.3145C34.7693 75.3145 38.2716 71.8129 38.2716 67.4927ZM25.7567 67.4927C25.7567 64.7275 28.4753 58.9063 30.4497 55.1251C32.4236 58.9062 35.1428 64.7275 35.1428 67.4927C35.1428 70.0851 33.0415 72.1858 30.4497 72.1858C27.8582 72.1858 25.7567 70.0851 25.7567 67.4927Z" fill="black"/>
</svg>
